<?xml version="1.0" standalone="no"?>
<!DOCTYPE svg PUBLIC "-//W3C//DTD SVG 20010904//EN"
 "http://www.w3.org/TR/2001/REC-SVG-20010904/DTD/svg10.dtd">
<svg version="1.0" xmlns="http://www.w3.org/2000/svg"
 width="1223.000000pt" height="1223.000000pt" viewBox="0 0 1223.000000 1223.000000"
 preserveAspectRatio="xMidYMid meet">
<metadata>
Created by potrace 1.14, written by Peter Selinger 2001-2017
</metadata>
<g transform="translate(0.000000,1223.000000) scale(0.100000,-0.100000)"
fill="#000000" stroke="none">
<path d="M4911 12182 c-42 -21 -83 -92 -110 -190 -10 -39 -17 -72 -15 -75 2
-2 0 -26 -5 -53 -10 -46 -16 -80 -26 -147 -11 -71 -15 -107 -20 -172 -3 -38
-7 -81 -10 -95 -2 -13 -7 -42 -10 -65 -3 -22 -10 -62 -15 -90 -23 -128 -34
-315 -32 -560 4 -572 12 -1205 16 -1240 8 -79 38 -201 59 -244 36 -72 110
-147 158 -159 36 -9 51 -7 108 14 36 13 79 34 94 45 27 19 179 80 375 150 93
33 281 66 422 74 170 10 214 15 288 35 67 19 138 54 170 86 74 75 41 248 -110
574 -17 36 -34 74 -39 85 -10 25 -104 182 -181 306 -32 50 -58 94 -58 97 0 5
-140 295 -180 372 -35 67 -59 116 -104 210 -25 52 -64 129 -87 170 -23 41 -51
93 -62 115 -11 22 -33 59 -48 82 -16 23 -33 52 -39 65 -11 24 -31 60 -40 68
-3 3 -21 30 -40 60 -19 30 -37 57 -41 60 -4 3 -24 34 -44 70 -95 163 -231 330
-292 356 -41 18 -41 18 -82 -4z"/>
<path d="M6498 11685 c-2 -2 -16 -6 -32 -9 -67 -12 -106 -88 -107 -211 -1
-114 33 -225 132 -430 84 -176 93 -199 171 -420 81 -232 104 -303 114 -350 4
-22 8 -44 9 -50 6 -28 16 -118 21 -180 2 -38 12 -113 20 -165 20 -125 21 -133
28 -220 16 -207 27 -261 66 -340 41 -81 132 -166 190 -177 39 -8 104 -3 152
10 140 39 339 41 387 3 8 -6 56 -34 108 -61 51 -28 101 -57 111 -65 48 -41
129 -68 227 -77 94 -8 156 62 157 176 1 80 -28 167 -122 366 -15 33 -35 87
-44 120 -9 33 -34 114 -56 180 -22 66 -42 127 -45 135 -25 95 -217 526 -244
550 -3 3 -19 30 -35 60 -31 57 -76 123 -88 128 -5 2 -8 9 -8 16 0 6 -13 27
-30 46 -16 19 -29 39 -30 43 0 9 -97 142 -121 167 -8 8 -30 36 -49 62 -19 27
-145 157 -281 290 -230 228 -253 248 -367 316 -67 41 -136 76 -154 78 -18 3
-43 7 -55 9 -12 2 -23 2 -25 0z"/>
<path d="M3998 11232 c-81 -22 -176 -126 -298 -322 -49 -80 -90 -149 -90 -153
0 -5 -33 -75 -74 -158 -41 -82 -91 -197 -111 -256 -21 -60 -41 -117 -45 -128
-5 -11 -16 -45 -25 -75 -9 -30 -19 -62 -22 -70 -3 -8 -7 -19 -8 -25 -2 -5 -8
-28 -13 -50 -6 -22 -14 -53 -16 -70 -3 -16 -8 -41 -11 -55 -3 -14 -8 -45 -11
-70 -3 -25 -8 -54 -10 -65 -2 -11 -6 -40 -10 -65 -11 -95 -15 -126 -20 -153
-5 -30 -13 -112 -19 -197 -6 -74 -6 -566 -1 -610 3 -19 7 -62 11 -95 27 -286
128 -475 254 -477 53 -1 93 23 180 107 103 100 127 120 191 165 30 21 69 50
85 64 17 15 44 33 60 40 153 70 241 107 300 125 38 13 82 32 97 43 58 41 88
138 88 288 0 66 -22 211 -40 260 -5 14 -11 41 -14 60 -3 19 -14 82 -25 140
-30 158 -71 382 -75 405 -1 11 -6 29 -9 40 -3 11 -9 38 -12 60 -3 23 -7 51
-10 64 -5 26 -13 90 -21 166 -2 28 -9 73 -14 100 -5 28 -12 75 -15 105 -4 30
-8 63 -10 73 -8 43 -17 236 -20 402 -3 199 -7 230 -35 284 -20 39 -82 100
-103 102 -7 0 -24 2 -39 3 -14 1 -32 0 -40 -2z"/>
<path d="M8593 10440 c-58 -35 -67 -66 -65 -235 1 -82 4 -159 6 -170 2 -11 7
-45 11 -75 4 -30 9 -66 11 -80 3 -14 7 -47 11 -75 8 -65 7 -671 -1 -710 -4
-16 -11 -56 -17 -88 -11 -67 -48 -182 -85 -266 -14 -31 -25 -58 -26 -61 0 -3
-5 -16 -10 -30 -79 -200 -50 -325 92 -401 16 -8 68 -14 145 -15 122 -2 133 -3
240 -30 80 -21 100 -33 170 -99 114 -108 187 -154 253 -160 79 -8 145 52 179
165 35 117 46 503 17 645 -2 11 -7 34 -9 50 -15 84 -26 142 -30 163 -10 44
-13 59 -44 177 -16 66 -39 161 -51 210 -23 98 -72 259 -97 315 -43 97 -127
260 -135 260 -4 0 -8 4 -8 10 0 5 -18 33 -39 61 -22 29 -45 64 -52 78 -8 14
-23 35 -34 46 -11 11 -33 39 -48 62 -60 88 -200 227 -253 252 -55 26 -90 26
-131 1z"/>
<path d="M2544 9820 c-17 -4 -44 -15 -60 -25 -43 -26 -151 -152 -186 -215 -16
-30 -43 -72 -59 -92 -16 -20 -29 -41 -29 -47 0 -5 -6 -16 -12 -23 -18 -18
-148 -283 -148 -300 0 -8 -4 -18 -9 -23 -7 -9 -41 -105 -45 -130 -1 -5 -4 -14
-8 -20 -5 -8 -15 -41 -33 -105 -1 -3 -7 -25 -14 -50 -7 -25 -15 -53 -17 -63
-2 -10 -6 -27 -9 -37 -8 -25 -16 -60 -20 -90 -3 -24 -11 -77 -21 -130 -2 -14
-9 -63 -15 -110 -6 -47 -13 -96 -15 -110 -3 -14 -7 -88 -10 -165 -2 -77 -7
-165 -10 -195 -10 -116 -13 -418 -3 -480 5 -36 11 -81 14 -100 14 -99 21 -114
56 -145 45 -37 76 -32 139 21 29 25 65 58 79 73 30 31 159 134 181 144 8 4 35
18 58 32 45 25 185 60 282 69 30 3 66 8 80 11 14 3 58 8 99 11 132 9 176 53
167 164 -9 109 -34 218 -55 244 -14 17 -39 110 -61 231 -25 135 -31 167 -34
180 -2 6 -6 21 -9 35 -4 14 -8 39 -11 55 -2 17 -11 57 -19 90 -20 74 -29 127
-43 240 -3 28 -7 230 -8 450 -1 220 -5 411 -9 424 -41 152 -90 200 -183 181z"/>
<path d="M5667 9274 c-1 -1 -20 -4 -43 -7 -47 -7 -148 -43 -167 -60 -6 -7 -32
-25 -56 -41 -83 -54 -154 -137 -208 -242 -44 -88 -86 -196 -97 -250 -3 -10 -9
-40 -15 -67 -36 -158 -42 -334 -15 -497 2 -14 6 -45 9 -70 3 -25 13 -76 22
-115 8 -38 17 -81 19 -95 9 -64 43 -200 62 -245 42 -104 134 -262 172 -295 3
-3 16 -21 29 -40 13 -19 60 -71 106 -115 97 -95 208 -156 325 -180 3 0 29 -7
59 -14 63 -16 249 -21 306 -9 64 14 168 82 252 166 77 76 133 143 133 159 0 5
11 25 25 45 34 50 53 106 81 233 31 142 37 184 38 273 2 68 -14 198 -27 218
-3 5 -8 29 -12 54 -4 24 -10 51 -15 60 -4 8 -8 17 -7 20 0 3 -12 46 -27 95
-61 197 -110 334 -147 412 -21 44 -39 84 -39 87 0 4 -22 43 -50 87 -27 44 -50
84 -50 89 0 5 -3 10 -7 12 -5 2 -21 23 -38 48 -42 63 -98 113 -185 167 -89 54
-177 102 -188 102 -4 0 -27 3 -52 7 -39 7 -188 13 -193 8z"/>
<path d="M7380 8990 c-19 -10 -53 -28 -75 -39 -116 -60 -285 -266 -353 -433
-80 -193 -108 -426 -88 -726 8 -127 11 -143 32 -226 21 -86 46 -136 107 -218
185 -249 373 -305 637 -191 84 36 97 46 153 118 61 77 60 76 74 105 6 14 32
69 57 122 25 53 46 103 46 111 0 7 3 17 8 21 4 4 7 11 8 14 0 4 6 27 13 52 7
25 14 52 16 60 2 8 8 33 13 55 34 128 39 215 28 470 -12 281 -27 349 -100 458
-23 34 -55 77 -71 95 -38 42 -180 136 -235 155 -66 22 -225 21 -270 -3z"/>
<path d="M4073 8484 c-40 -7 -94 -24 -121 -39 -49 -26 -215 -174 -197 -175 7
0 7 -3 0 -8 -59 -43 -170 -300 -190 -442 -43 -290 -38 -484 17 -695 5 -22 14
-48 19 -57 5 -10 9 -25 9 -34 0 -27 64 -155 122 -245 33 -50 91 -117 143 -166
74 -71 104 -91 208 -142 67 -33 136 -63 152 -67 17 -4 37 -9 45 -11 34 -9 177
-5 203 6 16 6 38 11 50 11 13 0 54 20 92 45 39 24 79 50 90 57 28 18 144 139
182 191 57 76 81 130 112 247 17 63 33 129 35 145 3 17 10 53 16 80 14 64 18
104 20 185 2 66 -16 246 -26 261 -3 5 -7 17 -9 26 -20 94 -78 292 -97 327 -24
46 -142 190 -196 239 -31 29 -65 61 -77 72 -43 40 -256 151 -345 180 -15 4
-120 18 -150 20 -19 0 -68 -5 -107 -11z"/>
<path d="M8540 8150 c-36 -9 -82 -24 -102 -34 -37 -18 -98 -72 -98 -87 0 -4
-27 -41 -59 -82 -52 -66 -148 -227 -135 -227 2 0 -5 -18 -16 -39 -23 -46 -56
-165 -65 -234 -8 -64 -8 -273 0 -322 15 -99 28 -154 48 -208 20 -52 41 -82
133 -190 29 -34 152 -100 231 -123 114 -34 229 -34 312 0 33 13 66 29 73 35 7
6 36 29 65 52 118 91 261 417 287 654 3 28 9 73 13 100 9 60 9 242 1 305 -19
148 -126 295 -264 361 -60 29 -70 33 -150 49 -62 13 -202 8 -274 -10z"/>
<path d="M2550 7424 c-30 -7 -56 -13 -57 -13 -2 -1 -11 -4 -20 -8 -24 -8 -106
-64 -115 -77 -4 -6 -8 -8 -8 -3 0 28 -138 -169 -178 -255 -12 -26 -26 -64 -31
-85 -6 -21 -15 -56 -21 -78 -19 -66 -35 -177 -34 -230 7 -230 7 -237 39 -391
3 -11 16 -51 31 -90 14 -38 28 -77 31 -86 3 -10 9 -18 14 -18 5 0 9 -4 9 -10
0 -22 73 -122 132 -180 55 -54 143 -124 158 -125 3 0 10 -3 16 -7 24 -16 123
-47 169 -54 64 -10 189 -10 237 -1 115 22 192 62 325 172 7 5 32 26 56 45 92
74 152 172 183 295 4 17 8 35 10 40 40 164 35 298 -23 530 -2 11 -6 29 -8 40
-8 53 -66 172 -115 237 -126 166 -252 265 -387 304 -32 9 -59 17 -60 16 -2 0
-17 4 -35 9 -18 5 -49 12 -68 15 -19 3 -42 8 -50 11 -29 11 -146 10 -200 -3z"/>
<path d="M6789 6886 c-2 -2 -35 -6 -74 -10 -287 -25 -502 -99 -798 -273 -256
-151 -483 -249 -667 -289 -14 -3 -36 -7 -50 -10 -47 -11 -55 -12 -105 -19 -27
-3 -77 -8 -110 -10 -33 -2 -60 -4 -60 -5 0 -1 -90 -3 -200 -5 -207 -2 -255 -6
-365 -31 -36 -8 -76 -17 -90 -20 -52 -10 -278 -78 -320 -96 -27 -11 -63 -26
-95 -38 -126 -48 -227 -95 -293 -137 -29 -18 -54 -33 -57 -33 -5 0 -28 -22
-180 -170 -109 -106 -149 -150 -235 -257 -6 -7 -10 -14 -10 -17 0 -3 -14 -29
-31 -58 -50 -84 -143 -268 -164 -323 -10 -27 -36 -88 -58 -135 -21 -47 -41
-92 -42 -100 -2 -8 -8 -30 -14 -48 -5 -18 -10 -35 -10 -37 0 -3 -2 -18 -5 -33
-44 -199 -46 -230 -32 -392 9 -95 19 -151 50 -290 11 -44 42 -145 68 -220 16
-47 31 -92 34 -100 2 -8 14 -46 28 -85 37 -108 50 -172 63 -315 9 -98 9 -324
-1 -375 -3 -22 -9 -53 -12 -68 -2 -15 -16 -62 -30 -105 -14 -42 -27 -95 -29
-117 -3 -22 -7 -58 -11 -80 -3 -22 -7 -56 -9 -75 -2 -19 -6 -51 -10 -70 -4
-19 -8 -51 -11 -70 -4 -42 -22 -173 -29 -215 -4 -27 -17 -94 -29 -150 -10 -49
-19 -265 -18 -435 2 -210 1 -198 14 -265 5 -27 11 -66 14 -85 2 -19 7 -46 11
-60 3 -14 7 -32 9 -40 6 -35 27 -97 41 -123 8 -15 12 -27 9 -27 -9 0 40 -98
67 -134 15 -19 27 -39 27 -44 0 -6 3 -12 8 -14 4 -1 29 -32 57 -68 103 -135
157 -177 298 -237 45 -18 111 -47 147 -62 184 -81 333 -141 367 -147 12 -2 43
-13 69 -25 38 -16 214 -65 304 -84 8 -2 60 -13 115 -25 55 -11 107 -22 115
-24 8 -2 44 -12 80 -21 66 -17 73 -19 170 -30 30 -4 64 -9 75 -11 93 -17 447
-24 540 -10 22 3 60 9 85 12 25 4 54 8 65 10 11 2 49 6 84 10 35 3 75 10 90
15 14 6 67 19 116 30 50 11 99 21 110 24 28 6 202 35 245 40 19 3 44 7 55 9
11 3 42 8 69 11 102 14 317 75 461 130 134 52 415 184 519 243 60 35 195 102
200 100 2 -2 12 4 22 13 11 9 82 47 159 83 77 37 156 76 175 86 126 66 642
244 770 265 19 3 80 17 135 30 55 13 123 29 150 35 28 6 122 33 210 61 88 28
189 60 225 71 36 11 74 24 85 28 11 5 56 23 100 40 117 47 210 97 297 162 77
57 270 242 298 286 17 26 100 142 133 186 84 110 107 142 107 152 0 7 20 52
45 100 47 93 61 129 70 179 7 43 11 62 30 131 12 49 14 93 10 215 -3 85 -7
165 -10 179 -15 81 -15 81 -31 195 -7 59 -8 63 -29 139 -8 33 -17 67 -19 75
-2 9 -6 23 -9 31 -3 8 -15 44 -27 80 -36 112 -110 267 -171 357 -33 49 -158
204 -190 235 -10 10 -30 34 -46 55 -15 21 -32 43 -38 49 -15 17 -47 63 -59 84
-15 25 -98 144 -105 150 -4 3 -18 21 -33 40 -14 19 -45 55 -69 80 -23 25 -67
77 -98 115 -31 39 -59 72 -62 75 -3 3 -27 37 -54 75 -180 258 -224 322 -289
420 -41 61 -98 157 -128 215 -76 147 -175 311 -235 389 -65 87 -95 129 -146
206 -33 50 -64 92 -69 93 -4 2 -8 10 -8 18 0 8 -4 14 -9 14 -5 0 -16 16 -26
36 -31 66 -206 260 -280 312 -22 15 -69 49 -104 75 -36 27 -81 55 -101 63 -19
9 -47 22 -61 29 -14 8 -65 26 -114 40 -49 14 -93 29 -99 34 -6 5 -13 9 -16 9
-3 -1 -43 11 -90 25 -74 22 -125 33 -205 43 -11 1 -20 3 -20 4 0 2 -42 10 -84
14 -20 3 -58 10 -86 16 -27 7 -66 14 -85 16 -50 5 -337 14 -341 10z"/>
</g>
</svg>
