<?xml version="1.0" ?><svg viewBox="0 0 32 32" xmlns="http://www.w3.org/2000/svg"><defs><style>.cls-1{fill:#231f20;}</style></defs><title/><g data-name="Apple Music" id="Apple_Music"><path class="cls-1" d="M25.41,3.47a1,1,0,0,0-.81-.22L9.83,5.85a1,1,0,0,0-.83,1V26a2.3,2.3,0,0,1-2.5,2A2.3,2.3,0,0,1,4,26a2.3,2.3,0,0,1,2.5-2,1,1,0,0,0,0-2A4.28,4.28,0,0,0,2,26a4.27,4.27,0,0,0,4.5,4A4.27,4.27,0,0,0,11,26V13.77l12.77-2.25V18.1c0,1.3-.4,2-2.5,2-3.32,0-4.5,2.07-4.5,4a4.27,4.27,0,0,0,4.5,4,4.27,4.27,0,0,0,4.5-4V4.23A1,1,0,0,0,25.41,3.47ZM23.77,24.1a2.3,2.3,0,0,1-2.5,2,2.3,2.3,0,0,1-2.5-2c0-1.35.82-2,2.5-2a6.11,6.11,0,0,0,2.5-.45ZM11,7.68,23.77,5.42V9.49L11,11.74Z"/></g></svg>