<?xml version="1.0" encoding="UTF-8" standalone="no"?>
<svg
   version="1.0"
   width="2080pt"
   height="969pt"
   viewBox="0 0 2080 969"
   preserveAspectRatio="xMidYMid meet"
   id="svg2753"
   sodipodi:docname="walkingBearSvg.svg"
   inkscape:version="1.1.2 (b8e25be833, 2022-02-05)"
   xmlns:inkscape="http://www.inkscape.org/namespaces/inkscape"
   xmlns:sodipodi="http://sodipodi.sourceforge.net/DTD/sodipodi-0.dtd"
   xmlns="http://www.w3.org/2000/svg"
   xmlns:svg="http://www.w3.org/2000/svg">
  <defs
     id="defs2757" />
  <sodipodi:namedview
     id="namedview2755"
     pagecolor="#ffffff"
     bordercolor="#666666"
     borderopacity="1.0"
     inkscape:pageshadow="2"
     inkscape:pageopacity="0.0"
     inkscape:pagecheckerboard="0"
     inkscape:document-units="pt"
     showgrid="false"
     width="2223pt"
     inkscape:zoom="0.35678957"
     inkscape:cx="1327.1128"
     inkscape:cy="888.47889"
     inkscape:window-width="1920"
     inkscape:window-height="1017"
     inkscape:window-x="-8"
     inkscape:window-y="-8"
     inkscape:window-maximized="1"
     inkscape:current-layer="svg2753" />
  <g
     transform="matrix(0.1,0,0,-0.1,-86.185255,1369.5047)"
     fill="#000000"
     stroke="none"
     id="g2751">
    <path
       d="m 8075,13624 c -441,-43 -724,-109 -1235,-285 -450,-156 -497,-173 -610,-224 -71,-32 -132,-52 -188,-62 -88,-14 -139,-35 -212,-88 -84,-61 -275,-187 -310,-205 -94,-48 -227,-71 -601,-105 -182,-16 -202,-23 -302,-114 -37,-34 -73,-62 -80,-62 -35,-4 -304,-9 -557,-12 -385,-3 -472,-23 -632,-147 -76,-59 -108,-101 -143,-190 -42,-105 -82,-336 -83,-472 0,-52 -6,-65 -69,-160 -45,-69 -119,-136 -308,-278 -171,-129 -458,-365 -498,-409 -137,-152 -253,-446 -287,-731 -5,-46 -10,-90 -10,-97 0,-7 -24,-39 -52,-71 -78,-88 -157,-202 -236,-342 -39,-69 -106,-183 -150,-255 -44,-71 -103,-173 -132,-225 -29,-52 -65,-108 -81,-125 -15,-16 -67,-93 -115,-170 -177,-283 -238,-460 -238,-685 0,-126 6,-155 53,-295 11,-33 31,-99 46,-148 38,-128 100,-188 232,-222 119,-32 255,9 427,129 50,34 125,80 166,100 41,21 91,50 110,64 19,15 78,55 130,89 113,74 183,123 229,160 l 34,28 -6,-57 c -8,-77 -50,-163 -145,-291 -79,-107 -146,-222 -177,-307 -36,-99 -73,-239 -80,-301 -13,-120 42,-245 138,-316 87,-65 240,-84 362,-45 86,28 324,136 424,194 47,28 125,70 172,93 47,24 148,78 225,121 150,83 272,144 289,144 6,0 30,-29 53,-64 49,-74 133,-154 210,-197 71,-40 168,-48 278,-24 101,22 164,56 235,126 72,72 91,101 238,359 134,235 261,420 378,548 83,92 148,144 237,192 33,17 71,44 85,59 14,15 67,52 117,83 96,60 523,277 634,323 70,29 182,66 187,62 1,-2 -4,-41 -12,-88 -14,-85 -18,-249 -15,-620 2,-184 0,-205 -29,-345 -17,-82 -44,-196 -61,-254 -17,-58 -49,-190 -71,-295 -23,-104 -47,-200 -55,-212 -8,-12 -14,-29 -14,-36 0,-18 -44,-123 -103,-247 -64,-136 -101,-225 -126,-305 -12,-38 -27,-79 -33,-89 -14,-26 -45,-116 -69,-201 -56,-194 -69,-246 -69,-265 0,-25 -70,-189 -113,-266 -18,-31 -43,-66 -57,-76 -14,-10 -73,-32 -130,-49 -106,-31 -230,-87 -307,-141 -124,-85 -311,-292 -406,-451 -60,-99 -83,-170 -91,-277 -7,-101 -1,-114 90,-191 130,-111 273,-173 437,-189 81,-7 152,-5 342,10 132,10 314,24 405,30 275,18 520,82 731,191 95,49 344,237 425,321 126,129 261,276 339,367 91,107 172,199 311,351 131,143 198,230 359,470 90,133 160,251 201,335 34,72 76,148 94,170 70,87 148,203 173,259 15,33 46,88 68,123 21,35 75,134 118,221 43,86 109,218 148,292 38,74 94,188 123,252 30,65 57,114 61,110 3,-4 34,-90 69,-192 76,-223 110,-303 202,-480 75,-144 112,-203 293,-455 63,-88 158,-227 211,-310 54,-82 142,-209 196,-282 117,-158 228,-327 228,-348 0,-8 -27,-28 -62,-46 -154,-77 -274,-182 -322,-279 -68,-135 -94,-279 -77,-424 36,-307 202,-447 641,-542 14,-3 77,-12 140,-18 101,-11 133,-11 255,4 77,10 223,28 325,39 600,70 684,93 832,230 141,131 259,311 442,676 71,143 158,306 192,362 86,142 112,217 125,366 22,238 -5,652 -57,865 -19,79 -34,162 -34,185 0,23 -14,80 -30,126 -36,103 -107,360 -115,421 -5,37 -3,50 14,72 30,37 100,58 198,58 148,0 542,39 658,66 287,65 295,66 350,59 30,-3 58,-11 61,-17 4,-6 8,-198 10,-427 2,-229 9,-553 15,-721 8,-206 9,-381 3,-540 -5,-129 -8,-312 -7,-406 l 1,-171 -51,-18 c -189,-66 -392,-217 -529,-392 -19,-24 -44,-50 -56,-59 -30,-21 -59,-80 -77,-156 -19,-79 -19,-138 0,-207 38,-143 115,-236 248,-299 174,-83 264,-96 647,-97 397,0 539,21 795,116 152,57 238,98 321,155 82,56 343,273 420,350 69,68 150,191 274,414 56,102 110,194 120,205 10,11 34,52 53,90 33,67 50,109 183,450 32,83 84,202 115,265 31,63 59,126 64,139 15,49 169,367 231,478 21,37 62,118 91,178 29,61 57,111 62,113 5,2 21,-34 36,-80 43,-133 125,-281 215,-390 44,-54 96,-108 114,-120 19,-13 97,-70 174,-128 393,-293 458,-338 547,-375 39,-15 142,-59 230,-96 201,-85 345,-135 555,-194 91,-25 174,-50 185,-55 11,-5 36,-12 55,-15 19,-4 55,-13 80,-21 119,-37 342,-77 525,-94 66,-7 127,-15 135,-19 8,-5 16,-19 18,-32 3,-23 -6,-28 -110,-68 -146,-56 -436,-201 -513,-256 -68,-48 -146,-127 -194,-198 -124,-181 -97,-457 57,-584 68,-55 187,-113 297,-144 77,-22 95,-23 520,-23 476,-1 543,3 844,55 97,17 205,35 240,40 110,16 181,36 316,87 226,86 337,151 442,260 107,111 163,253 178,452 9,123 -39,424 -94,584 -17,50 -31,98 -31,107 0,10 -19,64 -41,121 -23,57 -63,157 -89,223 -63,158 -63,158 -183,412 -58,120 -114,241 -127,268 -12,28 -73,156 -135,285 -112,233 -129,278 -209,570 -48,175 -76,438 -77,717 -2,334 0,340 145,493 53,56 105,123 125,160 l 34,63 -7,111 c -7,127 -44,361 -76,486 -61,241 -115,383 -209,548 -62,110 -79,168 -91,312 -12,143 -45,246 -134,415 -36,67 -79,158 -96,201 -44,111 -157,316 -256,464 -85,127 -246,349 -297,411 -67,80 -236,243 -334,320 -157,125 -237,192 -373,314 -234,210 -331,275 -677,457 -275,144 -413,199 -548,219 -38,5 -100,14 -137,19 -144,21 -908,2 -1018,-25 -36,-9 -182,-36 -325,-60 -143,-24 -300,-53 -350,-65 -49,-12 -137,-30 -195,-41 -115,-22 -475,-113 -610,-154 -165,-50 -511,-121 -800,-165 -30,-5 -75,-13 -101,-19 -25,-5 -83,-13 -130,-17 -239,-18 -875,-108 -909,-129 -5,-3 -63,-14 -470,-86 -91,-16 -199,-38 -240,-50 -59,-16 -115,-22 -265,-26 -209,-6 -387,10 -531,48 -151,39 -380,121 -514,184 -203,95 -352,152 -707,270 -210,69 -433,134 -635,185 -172,43 -383,97 -468,119 -211,55 -441,100 -563,111 -56,5 -149,16 -207,25 -102,15 -394,27 -475,19 z m 695,-477 c 69,-14 199,-43 290,-66 155,-38 246,-56 485,-96 296,-49 464,-89 614,-146 58,-22 201,-73 316,-114 116,-40 264,-94 330,-120 66,-25 154,-59 195,-75 41,-16 128,-49 192,-74 123,-48 306,-102 448,-132 72,-16 128,-19 365,-18 303,1 300,1 540,68 71,20 175,45 230,56 154,31 711,100 890,110 205,12 428,31 437,36 3,2 107,8 230,14 275,11 578,54 955,136 154,33 256,65 423,132 149,60 583,156 824,182 55,6 153,18 216,26 194,26 406,30 518,10 222,-40 254,-52 557,-201 160,-79 322,-155 360,-170 39,-14 93,-38 120,-52 47,-24 300,-184 355,-224 14,-10 54,-35 90,-55 120,-69 264,-181 370,-291 80,-82 137,-154 235,-301 198,-292 314,-475 314,-493 1,-9 9,-27 19,-40 27,-34 54,-88 111,-216 84,-188 107,-278 146,-561 22,-157 44,-220 152,-436 52,-104 108,-223 124,-265 34,-89 106,-366 111,-430 l 3,-44 -90,-54 c -49,-29 -102,-68 -117,-85 -46,-54 -105,-178 -123,-263 -24,-106 -15,-374 20,-655 15,-113 30,-252 35,-310 9,-108 22,-158 83,-320 19,-52 49,-149 66,-215 41,-164 66,-227 185,-470 103,-209 127,-265 271,-615 160,-391 144,-349 262,-690 86,-247 99,-329 69,-432 -16,-52 -22,-59 -79,-97 -165,-107 -418,-190 -732,-240 -71,-11 -229,-37 -350,-57 -300,-49 -492,-61 -682,-45 -242,20 -263,36 -158,117 78,60 361,197 667,324 153,63 202,118 216,245 10,83 7,314 -3,375 -16,87 -97,204 -175,255 -78,50 -221,74 -437,75 -113,0 -308,36 -493,91 -58,17 -152,44 -210,59 -58,16 -166,52 -240,80 -74,29 -181,67 -237,86 -177,57 -339,148 -490,271 -122,101 -344,321 -421,420 -84,107 -104,223 -101,587 3,286 0,303 -56,392 -49,77 -100,98 -229,96 -55,-2 -119,-7 -141,-13 -128,-35 -261,-173 -386,-402 -31,-56 -76,-138 -100,-182 -24,-44 -91,-182 -150,-306 -58,-124 -119,-245 -136,-270 -40,-58 -123,-212 -123,-228 0,-7 -34,-87 -76,-179 -41,-92 -104,-241 -139,-332 -92,-239 -161,-396 -240,-550 -50,-96 -129,-289 -156,-380 -30,-102 -100,-278 -123,-312 -8,-11 -51,-60 -95,-108 -69,-75 -97,-97 -188,-148 -226,-125 -346,-172 -523,-203 -259,-47 -430,-48 -650,-4 -243,49 -286,87 -228,202 35,69 208,212 333,273 100,49 129,58 237,80 107,21 191,110 211,223 9,55 8,84 -8,179 -15,90 -19,159 -18,338 1,166 13,1613 15,1820 1,71 -20,161 -46,198 -55,79 -154,147 -246,167 -89,20 -378,12 -600,-15 -147,-18 -512,-50 -577,-50 -79,0 -278,-34 -359,-60 -114,-38 -219,-132 -289,-261 -77,-143 -74,-349 9,-599 19,-58 40,-139 46,-180 6,-41 16,-91 20,-110 28,-113 68,-540 72,-760 3,-174 11,-146 -90,-282 -58,-79 -179,-280 -215,-358 -16,-35 -79,-150 -139,-255 -61,-104 -122,-210 -136,-235 -14,-25 -44,-75 -68,-111 l -42,-66 -59,-7 c -32,-4 -139,-20 -238,-36 -321,-52 -562,-80 -675,-80 -98,0 -269,42 -360,87 -134,67 -168,210 -77,321 57,70 248,178 378,212 24,7 51,18 59,25 8,7 35,23 60,35 25,13 66,40 92,62 42,35 47,44 54,94 8,70 -6,141 -45,224 -42,89 -78,144 -297,456 -180,256 -257,357 -483,629 -119,143 -181,227 -261,355 -71,112 -239,431 -270,510 -12,30 -44,97 -71,149 -89,166 -161,257 -222,280 -79,30 -228,-6 -322,-79 -125,-97 -261,-302 -535,-810 -62,-117 -276,-437 -360,-540 -43,-54 -147,-239 -185,-330 -73,-174 -193,-372 -329,-540 -146,-180 -312,-395 -394,-510 -45,-64 -103,-140 -127,-170 -25,-30 -62,-79 -81,-109 -47,-69 -65,-86 -199,-175 -217,-146 -501,-273 -682,-305 -93,-17 -389,-41 -508,-41 -220,0 -406,31 -453,75 -16,15 -8,35 44,103 97,128 222,238 349,306 103,56 141,71 248,97 203,50 292,144 442,474 37,83 92,224 120,315 56,175 132,392 185,525 98,248 175,489 215,673 39,185 101,390 166,552 84,211 141,709 124,1087 -5,104 -8,241 -6,306 3,162 -10,217 -62,272 -52,54 -109,66 -186,41 -28,-9 -57,-16 -66,-16 -9,0 -53,-18 -98,-39 -78,-37 -312,-121 -338,-121 -7,0 -75,-25 -151,-56 -154,-61 -459,-218 -583,-299 -44,-29 -118,-77 -165,-107 -60,-38 -143,-111 -279,-244 -161,-156 -217,-219 -323,-360 -134,-180 -215,-312 -262,-428 -28,-72 -100,-191 -129,-214 -9,-8 -34,-16 -57,-19 -50,-7 -64,5 -117,94 -63,108 -133,155 -258,173 -78,11 -82,11 -150,-17 -38,-16 -115,-53 -170,-84 -55,-31 -134,-75 -175,-98 -41,-22 -155,-82 -252,-131 -98,-49 -242,-125 -320,-168 -175,-97 -241,-132 -250,-132 -13,0 75,286 108,352 13,25 41,67 63,92 61,71 125,164 161,234 43,86 60,193 63,397 3,222 -4,247 -92,335 -91,90 -150,107 -261,74 -47,-14 -68,-30 -147,-109 -80,-82 -213,-194 -309,-262 -50,-35 -281,-161 -319,-173 -18,-6 -68,-11 -111,-11 -67,0 -83,4 -123,28 -62,39 -76,70 -75,168 1,69 7,94 43,183 22,57 64,144 93,195 28,51 60,110 71,132 34,68 333,520 427,645 92,123 143,199 205,305 98,167 111,204 125,345 13,135 31,211 86,359 45,124 88,199 180,315 82,104 170,176 439,357 153,103 241,186 312,292 58,88 85,158 86,225 0,53 0,53 46,77 93,47 125,94 177,256 59,186 75,206 175,228 89,20 391,43 639,50 249,7 256,7 305,33 28,14 71,48 95,75 83,90 72,86 249,84 260,-3 388,29 519,130 179,138 258,197 279,207 12,7 77,14 145,16 136,5 225,24 373,81 50,19 167,63 260,99 94,35 238,91 320,124 165,66 345,122 472,146 71,13 379,53 593,76 41,5 199,7 350,5 247,-2 288,-5 400,-28 z"
       id="path2733" />
    <path
       d="m 18087,12405 c -73,-25 -89,-56 -117,-226 -30,-184 -47,-271 -80,-404 -27,-110 -99,-473 -115,-588 -4,-27 -11,-45 -15,-40 -4,4 -23,51 -43,103 -19,52 -52,131 -72,175 -21,44 -64,143 -97,220 -32,77 -94,201 -137,275 -43,74 -97,172 -120,218 -67,133 -146,202 -233,202 -72,0 -88,-64 -40,-165 16,-33 41,-98 57,-145 15,-47 59,-148 96,-226 38,-77 99,-224 135,-325 112,-313 212,-609 245,-723 17,-60 46,-145 65,-188 40,-94 40,-98 22,-554 -12,-317 -11,-349 37,-889 7,-83 11,-204 8,-270 -4,-98 -2,-139 16,-224 12,-58 28,-115 37,-128 38,-59 127,-80 186,-45 50,29 73,77 72,152 -2,109 -23,479 -34,583 -5,54 -10,146 -10,205 -1,59 -5,152 -10,207 -13,134 -13,762 -1,817 13,58 62,335 65,373 16,158 72,495 106,640 66,276 156,806 146,864 -14,86 -90,134 -169,106 z"
       id="path2735" />
    <path
       d="m 16512,12275 c -42,-53 -72,-243 -132,-833 -22,-216 -47,-511 -56,-655 -16,-286 -60,-710 -100,-962 -13,-88 -34,-227 -45,-310 -19,-137 -47,-311 -100,-610 -36,-205 -40,-242 -28,-295 26,-120 142,-167 230,-93 41,35 55,69 74,189 9,54 29,169 45,254 51,266 85,521 115,855 9,94 18,188 21,210 l 5,41 81,2 c 70,2 110,8 179,28 23,6 28,-31 39,-286 11,-257 29,-406 75,-640 19,-96 46,-243 60,-327 32,-194 63,-288 109,-330 96,-89 243,-25 254,111 4,53 -15,233 -63,596 -14,102 -32,277 -40,390 -21,272 -40,437 -70,595 -13,72 -33,189 -44,260 -11,72 -29,177 -40,235 -12,58 -33,195 -47,305 -44,340 -125,670 -241,980 -64,173 -101,249 -138,288 -21,22 -34,27 -75,27 -40,0 -52,-4 -68,-25 z m 182,-905 c 14,-107 30,-276 36,-375 6,-99 24,-300 40,-447 17,-147 30,-269 30,-272 0,-3 -17,-6 -38,-6 -22,0 -76,-5 -121,-11 -45,-6 -85,-8 -88,-5 -6,6 8,314 28,625 5,84 20,253 34,375 13,121 27,257 31,301 9,99 12,88 48,-185 z"
       id="path2737" />
    <path
       d="m 14629,12273 c -14,-4 -17,-33 -24,-229 -19,-595 -25,-3264 -8,-3354 42,-212 60,-252 126,-284 77,-36 157,-18 352,77 241,118 463,285 561,422 51,73 143,264 179,374 29,87 78,340 94,481 49,443 34,695 -65,1095 -77,309 -141,489 -249,705 -91,182 -140,245 -338,431 -165,157 -184,172 -280,219 -125,61 -250,84 -348,63 z m 317,-256 c 24,-21 76,-79 116,-129 40,-50 97,-121 126,-157 64,-80 143,-238 212,-425 60,-163 84,-260 141,-561 51,-275 60,-474 35,-796 -27,-346 -68,-524 -166,-724 -71,-146 -131,-215 -273,-319 -137,-99 -213,-141 -223,-124 -5,7 -12,326 -15,708 -4,382 -12,819 -18,970 -6,151 -15,408 -21,572 -19,539 -45,924 -70,1033 -5,22 -10,44 -10,48 0,14 119,-56 166,-96 z"
       id="path2739" />
    <path
       d="m 12344,12181 c -12,-5 -30,-21 -41,-35 -35,-44 -169,-477 -242,-781 -121,-504 -143,-628 -181,-1045 -32,-352 -48,-447 -180,-1025 -110,-481 -192,-888 -188,-928 2,-19 13,-38 30,-50 23,-17 31,-18 56,-8 76,32 123,159 271,731 79,307 97,390 136,600 l 32,175 114,-3 c 63,-1 157,-7 210,-14 l 95,-11 13,-141 c 6,-78 18,-215 26,-306 20,-233 88,-669 127,-814 25,-93 68,-146 136,-166 85,-26 177,31 201,124 12,47 3,111 -34,246 -9,30 -24,150 -35,265 -11,116 -27,260 -35,320 -22,168 -130,1166 -159,1471 -25,261 -111,892 -142,1038 -33,160 -77,299 -103,328 -28,30 -74,43 -107,29 z m 6,-926 c 11,-137 27,-351 35,-475 8,-124 24,-348 36,-498 11,-150 19,-275 17,-277 -2,-2 -25,1 -53,7 -34,7 -87,7 -179,-1 -71,-6 -131,-9 -133,-8 -2,2 1,35 6,73 6,38 15,128 21,199 23,272 54,482 125,840 41,204 77,397 81,430 l 8,60 8,-50 c 4,-27 16,-162 28,-300 z"
       id="path2741" />
    <path
       d="m 9135,12109 c -81,-13 -163,-46 -244,-96 -116,-71 -159,-109 -171,-151 -6,-20 -14,-161 -17,-312 -6,-302 7,-544 52,-970 42,-392 48,-608 25,-910 -28,-367 -40,-645 -42,-955 l -3,-340 25,-49 c 31,-61 64,-87 121,-93 81,-8 142,45 160,141 10,52 32,1003 31,1356 l -1,266 42,11 c 23,6 61,18 85,27 38,14 46,14 71,2 57,-30 88,-92 170,-350 104,-322 169,-679 186,-1016 11,-218 45,-343 107,-395 71,-60 159,-54 221,14 46,51 53,91 38,221 -6,58 -18,173 -26,255 -26,256 -94,670 -140,840 -33,127 -157,417 -211,498 -50,73 -130,151 -181,175 -18,9 -33,19 -33,22 0,4 52,56 116,115 130,121 193,204 265,348 104,206 143,396 121,585 -16,134 -56,281 -104,382 -35,74 -55,99 -152,196 -129,127 -197,168 -311,184 -81,11 -130,11 -200,-1 z m 209,-199 c 51,-24 168,-156 208,-234 62,-122 96,-369 69,-508 -21,-103 -77,-267 -126,-363 -51,-99 -92,-157 -206,-290 -43,-49 -108,-128 -146,-174 -37,-47 -74,-86 -80,-89 -9,-3 -13,12 -13,51 0,30 -11,139 -25,243 -14,104 -34,284 -45,399 -12,116 -25,239 -31,274 -5,35 -14,147 -19,250 -5,102 -15,225 -21,273 -6,48 -9,94 -5,103 7,19 117,72 177,85 71,15 213,4 263,-20 z"
       id="path2743" />
    <path
       d="m 7482,12000 c -47,-44 -47,-56 -44,-873 2,-587 -1,-831 -13,-1040 -57,-1035 37,-1582 309,-1787 106,-80 249,-105 343,-59 160,77 271,301 321,649 43,289 62,417 82,540 32,203 43,482 37,940 -8,526 -30,794 -102,1206 -8,48 -15,107 -15,132 0,25 -5,75 -11,111 -10,55 -18,72 -49,104 -31,30 -45,37 -77,37 -80,0 -113,-50 -113,-172 1,-81 8,-150 49,-463 31,-235 39,-349 52,-708 18,-502 -1,-770 -101,-1437 -26,-179 -51,-350 -55,-380 -18,-145 -50,-238 -97,-287 -39,-40 -66,-41 -107,-7 -43,36 -74,92 -121,217 -94,248 -114,432 -106,944 3,203 9,523 12,713 6,390 -16,1085 -41,1264 -21,161 -65,326 -92,354 -27,27 -34,27 -61,2 z"
       id="path2745" />
    <path
       d="m 10671,11995 c -157,-44 -316,-157 -366,-259 -39,-79 -58,-202 -52,-326 11,-229 80,-340 361,-584 129,-112 227,-256 275,-405 28,-85 75,-355 102,-581 40,-332 28,-789 -27,-1070 -30,-152 -52,-200 -99,-223 -44,-21 -192,-42 -229,-33 -73,18 -106,89 -167,351 -43,183 -61,225 -101,239 -94,33 -142,-76 -142,-324 0,-263 102,-453 293,-548 71,-35 78,-36 202,-40 154,-5 243,8 327,49 215,104 314,378 356,981 9,123 -12,447 -39,627 -41,267 -121,569 -191,719 -99,214 -266,398 -481,526 -87,52 -163,124 -198,188 -26,47 -30,65 -33,159 -7,181 32,261 162,334 78,43 161,65 251,65 94,0 128,-11 181,-60 36,-33 51,-41 77,-38 30,3 32,6 35,45 6,80 -64,172 -153,199 -74,23 -276,28 -344,9 z"
       id="path2747" />
    <path
       d="m 13598,10963 c -11,-13 -20,-70 -33,-223 -9,-113 -19,-209 -22,-213 -3,-5 -61,-6 -128,-2 -117,7 -124,6 -144,-14 -35,-35 -27,-70 35,-146 17,-22 73,-105 124,-185 l 92,-144 -7,-121 c -4,-66 -18,-171 -32,-234 -28,-128 -23,-160 26,-181 58,-24 86,3 183,174 l 51,89 41,-44 c 23,-25 55,-65 73,-91 39,-57 75,-82 119,-82 72,0 94,57 58,149 -13,33 -41,121 -63,195 l -39,134 37,46 c 21,25 70,92 110,148 81,115 96,162 67,207 -29,44 -71,58 -201,64 l -120,6 -17,70 c -10,39 -33,135 -52,215 -20,79 -44,156 -54,170 -24,32 -81,39 -104,13 z"
       id="path2749" />
  </g>
</svg>
