<?xml version="1.0" standalone="no"?>
<!DOCTYPE svg PUBLIC "-//W3C//DTD SVG 20010904//EN"
 "http://www.w3.org/TR/2001/REC-SVG-20010904/DTD/svg10.dtd">
<svg version="1.0" xmlns="http://www.w3.org/2000/svg"
 width="3056.000000pt" height="3056.000000pt" viewBox="0 0 3056.000000 3056.000000"
 preserveAspectRatio="xMidYMid meet">
<metadata>
Created by potrace 1.14, written by Peter Selinger 2001-2017
</metadata>
<g transform="translate(0.000000,3056.000000) scale(0.100000,-0.100000)"
fill="#000000" stroke="none">
<path d="M12352 30498 c-7 -7 -12 -9 -12 -5 0 4 -18 -2 -40 -13 -22 -11 -40
-18 -40 -15 0 20 -133 -115 -154 -158 -9 -18 -26 -47 -37 -65 -10 -18 -17 -37
-14 -42 3 -4 -2 -13 -10 -20 -8 -7 -15 -20 -15 -29 0 -9 -9 -42 -20 -74 -11
-32 -19 -62 -18 -65 1 -4 -4 -20 -11 -36 -6 -16 -9 -31 -7 -33 3 -3 0 -17 -6
-32 -6 -14 -12 -37 -13 -51 -1 -14 -7 -45 -14 -69 -7 -23 -10 -45 -7 -48 2 -3
0 -17 -5 -32 -6 -14 -12 -44 -14 -66 -1 -22 -6 -48 -10 -57 -4 -10 -8 -39 -9
-66 -1 -26 -5 -53 -9 -59 -4 -5 -9 -37 -12 -69 -3 -33 -7 -70 -10 -84 -3 -14
-8 -45 -10 -70 -2 -25 -7 -56 -11 -70 -3 -14 -8 -50 -9 -80 -2 -30 -5 -55 -6
-55 -2 0 -8 -33 -14 -85 -2 -25 -7 -56 -11 -70 -3 -14 -7 -46 -8 -71 -2 -25
-6 -51 -10 -57 -3 -6 -8 -39 -11 -74 -2 -35 -7 -74 -10 -88 -4 -14 -8 -47 -10
-75 -3 -27 -7 -61 -10 -75 -3 -14 -8 -43 -10 -65 -2 -22 -7 -62 -10 -90 -4
-27 -8 -68 -10 -90 -1 -22 -6 -58 -10 -80 -4 -22 -9 -65 -11 -95 -2 -30 -6
-77 -10 -105 -3 -27 -7 -84 -9 -125 -2 -41 -7 -109 -11 -150 -6 -71 -14 -567
-13 -825 1 -417 6 -1151 8 -1155 2 -6 10 -469 15 -965 2 -214 7 -464 10 -555
4 -91 8 -244 11 -340 3 -96 7 -191 10 -210 2 -19 6 -63 9 -98 2 -34 9 -68 15
-76 6 -7 8 -15 5 -19 -3 -3 0 -23 7 -44 7 -21 12 -42 11 -46 -1 -4 3 -17 9
-28 6 -11 12 -30 14 -41 3 -11 13 -38 25 -59 11 -22 18 -39 15 -39 -3 0 4 -16
15 -36 83 -147 219 -305 310 -361 77 -48 183 -64 265 -41 22 6 44 11 48 10 4
-1 18 3 30 10 12 7 32 14 45 15 12 2 38 13 57 24 19 12 35 18 35 14 0 -3 13 3
29 14 16 12 32 21 36 21 4 0 26 12 49 28 40 27 188 102 201 102 3 0 30 10 58
23 29 13 72 29 97 37 25 7 52 20 61 27 9 7 18 10 21 7 4 -3 17 0 30 7 12 7 27
12 32 11 4 -2 14 2 21 8 7 6 22 12 32 14 11 2 36 11 56 20 21 8 38 15 40 15 1
0 47 18 101 41 55 22 107 40 116 40 10 0 23 7 30 15 7 8 16 12 21 9 5 -2 22 2
39 11 16 8 30 13 30 10 0 -3 8 -1 19 4 10 6 33 13 52 16 19 3 35 10 37 15 2 5
10 6 17 4 8 -3 20 -2 27 2 7 5 18 9 23 10 6 1 27 5 49 8 21 3 43 9 49 13 6 3
24 8 41 9 17 1 47 6 66 9 19 4 44 9 55 10 11 1 20 3 20 4 0 3 64 11 120 15 22
2 51 7 66 10 14 3 54 8 90 11 35 3 80 7 99 10 19 3 69 8 110 10 41 2 98 6 125
9 28 4 79 8 115 11 36 3 81 7 100 10 19 3 58 7 85 9 28 2 66 6 86 10 20 4 51
9 70 11 19 2 45 6 59 10 14 3 42 7 62 9 20 2 42 8 49 12 8 4 25 8 39 9 14 1
34 6 45 12 11 6 25 9 31 6 6 -2 17 3 23 11 7 8 19 12 27 9 8 -3 24 3 34 12 11
10 20 15 20 11 0 -3 32 10 72 30 52 26 96 60 160 124 49 49 87 92 86 97 -1 4
8 27 20 51 13 23 20 47 17 52 -3 5 0 12 6 15 5 4 8 13 5 21 -3 7 -1 16 4 19
11 7 4 128 -10 165 -1 3 -2 14 -1 26 1 11 -4 33 -10 50 -7 16 -11 33 -10 38 1
4 -3 23 -9 41 -6 18 -13 42 -15 55 -2 12 -9 28 -15 34 -5 7 -7 15 -4 18 3 4
-2 20 -10 37 -9 17 -16 32 -15 33 2 4 -10 48 -21 73 -4 11 -22 61 -40 110 -18
50 -38 102 -46 117 -8 15 -15 30 -14 33 0 3 -6 21 -14 40 -9 20 -15 36 -14 38
1 1 -5 13 -12 27 -8 14 -15 27 -16 30 -2 11 -19 49 -57 130 -22 47 -41 87 -42
90 0 3 -18 39 -38 81 -20 42 -37 81 -37 87 0 6 -3 12 -7 14 -5 2 -19 26 -32
53 -14 28 -30 57 -37 65 -7 8 -13 18 -13 23 -3 30 -256 467 -271 467 -6 0 -9
3 -8 8 2 12 -15 46 -34 66 -9 10 -15 23 -12 27 2 4 -6 15 -18 23 -12 9 -19 16
-16 16 8 0 -48 107 -68 130 -7 8 -13 18 -13 23 -1 8 -47 101 -104 207 -22 41
-76 145 -119 230 -44 85 -83 160 -88 165 -5 6 -8 12 -9 15 0 14 -16 47 -30 64
-9 10 -15 20 -13 22 4 6 -88 195 -104 214 -7 8 -13 17 -13 20 0 12 -15 46 -27
60 -7 8 -13 20 -15 25 -4 23 -13 41 -27 58 -8 9 -12 17 -8 17 4 0 0 10 -8 22
-9 12 -16 30 -16 39 0 10 -3 19 -7 21 -7 3 -66 115 -68 128 0 3 -5 12 -10 20
-5 8 -10 21 -12 29 -1 8 -8 18 -15 22 -7 5 -9 9 -4 9 5 0 1 9 -9 20 -10 11
-15 20 -11 20 4 0 -2 17 -13 38 -11 20 -66 129 -121 242 -56 113 -109 213
-118 224 -10 10 -16 21 -16 25 2 8 -19 54 -27 61 -11 9 -39 73 -39 88 0 9 -3
12 -6 9 -4 -4 -17 12 -29 36 -33 65 -87 159 -107 189 -10 14 -18 33 -18 41 0
9 -4 17 -8 19 -7 3 -49 70 -75 118 -4 8 -18 32 -30 52 -12 20 -51 85 -87 145
-89 150 -250 397 -261 401 -5 2 -9 12 -9 23 0 10 -4 19 -9 19 -9 0 -121 175
-167 260 -10 19 -21 37 -24 40 -3 3 -18 26 -33 53 -15 26 -32 47 -38 47 -6 0
-8 4 -5 8 5 9 -167 242 -263 356 -62 73 -245 255 -298 297 -18 14 -85 42 -105
44 -3 0 -10 3 -14 8 -10 10 -18 9 -32 -5z"/>
<path d="M16247 29203 c-3 -3 -25 -7 -49 -8 -90 -6 -143 -31 -198 -93 -53 -61
-65 -77 -67 -88 -1 -5 -11 -33 -22 -62 -11 -29 -20 -61 -19 -70 0 -9 -3 -28
-8 -42 -9 -33 -10 -330 0 -400 13 -91 14 -98 24 -116 5 -9 7 -25 5 -34 -3 -10
1 -29 8 -41 7 -13 12 -28 10 -33 -1 -6 2 -19 7 -30 9 -20 30 -81 36 -101 13
-46 81 -211 93 -226 7 -9 10 -19 6 -23 -4 -4 -2 -11 5 -15 8 -4 14 -14 15 -22
3 -15 35 -86 88 -193 16 -32 29 -64 29 -71 0 -7 7 -18 15 -25 8 -7 12 -17 9
-22 -3 -5 1 -17 9 -26 8 -9 18 -28 22 -42 4 -14 15 -33 24 -44 9 -10 15 -21
14 -25 -4 -10 9 -45 22 -61 8 -8 14 -19 16 -25 4 -20 12 -41 35 -93 13 -29 24
-55 24 -58 0 -7 27 -71 42 -98 5 -10 11 -26 13 -35 2 -9 11 -35 21 -57 9 -21
18 -46 20 -54 2 -8 8 -16 14 -18 5 -2 8 -8 5 -13 -3 -4 1 -22 10 -39 8 -16 15
-32 15 -35 -1 -11 13 -61 20 -70 4 -5 10 -23 14 -40 4 -16 14 -43 21 -60 12
-27 38 -103 40 -115 0 -3 3 -9 6 -15 3 -5 12 -30 19 -55 7 -25 17 -49 22 -54
4 -6 8 -19 8 -31 0 -11 7 -31 16 -43 8 -12 12 -22 9 -22 -3 0 0 -10 7 -22 7
-13 11 -27 10 -31 -1 -4 5 -21 13 -37 9 -16 16 -33 16 -37 2 -14 10 -37 22
-63 6 -14 10 -31 8 -37 -1 -7 5 -23 14 -36 8 -13 12 -26 9 -29 -3 -4 2 -20 10
-37 9 -17 16 -33 16 -36 -1 -8 11 -58 17 -75 12 -30 22 -73 29 -120 3 -19 8
-42 11 -50 9 -23 13 -41 18 -89 3 -25 9 -49 14 -55 5 -6 7 -22 5 -35 -3 -14 1
-40 7 -59 6 -18 12 -57 14 -85 2 -29 6 -65 10 -82 4 -16 8 -52 10 -80 1 -27 3
-50 4 -50 3 0 10 -63 16 -140 4 -53 11 -100 15 -100 1 0 3 -25 5 -55 2 -30 6
-71 10 -90 3 -19 8 -51 10 -70 5 -46 12 -85 14 -85 2 0 4 -25 6 -55 2 -30 6
-66 10 -80 3 -14 7 -53 9 -86 2 -34 8 -70 13 -80 5 -11 8 -44 7 -74 -1 -30 0
-62 3 -70 6 -17 12 -70 18 -155 2 -33 6 -76 9 -95 4 -19 8 -64 11 -100 3 -36
9 -82 14 -102 5 -20 6 -39 4 -42 -3 -3 -2 -13 2 -23 8 -17 10 -27 19 -83 3
-14 12 -50 21 -80 10 -30 18 -59 20 -65 2 -12 12 -36 33 -85 8 -19 16 -37 16
-40 1 -3 22 -39 48 -80 59 -95 190 -236 265 -286 65 -44 103 -65 103 -58 0 2
13 -2 29 -11 30 -15 118 -28 186 -27 41 1 110 8 110 12 0 1 23 3 50 5 28 2 61
6 75 10 14 3 43 8 65 11 22 3 41 9 43 14 2 5 10 6 18 3 7 -3 35 0 61 6 27 6
68 13 93 16 25 3 65 8 90 11 25 3 106 7 182 7 75 1 139 5 142 8 3 3 31 4 61 2
75 -4 91 -7 107 -19 7 -5 31 -19 53 -29 22 -11 48 -27 59 -35 10 -8 19 -13 20
-11 2 6 83 -35 139 -70 27 -16 52 -27 57 -24 4 3 10 -2 14 -10 4 -11 59 -43
86 -49 3 -1 25 -14 50 -30 25 -15 55 -34 67 -42 12 -7 38 -23 57 -34 20 -11
53 -30 74 -42 20 -12 55 -32 77 -45 46 -26 85 -44 103 -47 7 -1 18 -8 24 -14
7 -7 20 -12 29 -12 10 0 20 -4 23 -9 4 -5 14 -8 24 -7 9 2 20 -2 24 -7 3 -6
20 -12 36 -13 16 -1 38 -6 48 -12 29 -14 232 -22 279 -10 81 20 78 19 167 97
42 37 100 129 112 176 12 46 14 267 3 295 -5 14 -10 41 -12 60 -2 19 -8 50
-13 68 -6 18 -10 33 -10 35 1 1 -12 43 -27 92 -16 50 -30 92 -30 95 -4 12 -18
48 -37 89 -11 25 -21 53 -23 63 -2 11 -11 33 -20 50 -8 17 -15 37 -15 43 0 7
-7 18 -15 25 -8 7 -12 17 -9 22 3 5 -2 18 -13 30 -10 11 -17 22 -16 24 4 6
-49 118 -65 137 -8 9 -12 17 -9 17 4 0 -2 16 -13 35 -11 20 -20 44 -20 54 0
10 -3 21 -7 25 -5 4 -8 11 -9 14 0 4 -7 27 -14 52 -7 25 -14 47 -14 50 -1 3
-4 10 -8 16 -4 6 -10 26 -13 44 -3 18 -11 42 -17 54 -6 11 -11 23 -10 26 2 10
-10 56 -20 74 -5 10 -12 30 -14 45 -3 14 -12 49 -21 76 -9 28 -16 51 -15 52 0
1 -8 26 -19 55 -11 29 -22 58 -23 63 -2 6 -6 17 -9 25 -3 8 -18 53 -33 100
-14 47 -29 90 -33 95 -3 6 -6 15 -6 20 -1 11 -10 34 -28 75 -6 14 -10 30 -8
37 1 6 -3 14 -9 18 -5 3 -10 17 -10 30 0 13 -4 26 -9 29 -4 3 -14 26 -21 51
-7 25 -17 48 -21 51 -5 3 -9 11 -9 19 0 7 -10 35 -22 62 -11 26 -22 53 -23 58
0 6 -6 21 -12 35 -6 14 -30 72 -53 130 -24 58 -58 137 -76 177 -19 40 -34 76
-34 81 0 5 -7 15 -15 22 -8 7 -13 16 -10 20 3 5 1 11 -5 15 -5 3 -10 14 -10
24 0 10 -7 24 -15 31 -8 6 -14 15 -13 18 1 4 -6 24 -15 46 -9 21 -17 42 -17
46 0 5 -3 10 -8 12 -4 2 -23 35 -41 73 -19 39 -45 87 -58 108 -13 20 -20 37
-17 37 4 0 2 6 -4 13 -5 6 -22 35 -38 62 -15 28 -41 73 -56 100 -16 28 -31 58
-34 68 -4 9 -10 17 -15 17 -5 0 -9 7 -9 15 0 8 -4 15 -10 15 -5 0 -10 4 -10 9
0 8 -144 237 -167 266 -4 6 -15 24 -23 40 -8 17 -18 32 -21 35 -8 7 -112 158
-129 188 -8 15 -20 31 -26 37 -19 17 -94 132 -94 144 0 6 -4 11 -8 11 -10 0
-82 96 -82 110 0 5 -3 10 -7 10 -5 0 -39 41 -78 92 -38 50 -77 98 -85 107 -8
9 -31 37 -50 61 -102 132 -253 293 -609 648 -355 355 -477 472 -666 640 -91
82 -266 212 -284 212 -5 0 -14 7 -21 15 -7 8 -24 21 -39 28 -14 8 -66 39 -116
69 -121 74 -185 109 -185 101 0 -3 -9 2 -20 12 -11 10 -20 15 -20 11 0 -3 -17
1 -37 9 -20 9 -43 13 -50 11 -7 -3 -15 -1 -18 4 -3 5 -13 9 -23 9 -9 0 -45 2
-78 5 -34 3 -64 2 -67 -1z"/>
<path d="M10029 28076 c-2 -2 -22 -6 -44 -9 -68 -8 -143 -43 -213 -100 -74
-60 -158 -143 -197 -196 -14 -19 -28 -37 -33 -40 -4 -3 -41 -53 -82 -111 -41
-58 -78 -106 -82 -108 -4 -2 -8 -8 -8 -13 0 -10 -188 -299 -201 -309 -4 -3
-18 -27 -33 -55 -15 -27 -42 -75 -61 -105 -31 -49 -60 -107 -120 -235 -10 -22
-19 -42 -20 -45 -9 -28 -89 -186 -96 -188 -5 -2 -9 -10 -9 -18 0 -8 -4 -22
-10 -32 -13 -25 -104 -216 -105 -222 -1 -3 -11 -25 -22 -50 -20 -42 -35 -79
-37 -90 -1 -3 -7 -15 -14 -27 -7 -13 -10 -23 -7 -23 3 0 -2 -11 -11 -25 -9
-14 -13 -25 -10 -25 4 0 -1 -11 -10 -25 -9 -14 -13 -25 -9 -25 4 0 3 -6 -3
-12 -13 -16 -62 -138 -56 -138 3 0 -2 -12 -10 -27 -17 -33 -46 -110 -52 -137
-2 -10 -8 -24 -14 -32 -7 -7 -9 -18 -6 -23 4 -5 2 -12 -4 -16 -8 -5 -33 -74
-35 -100 -1 -5 -6 -20 -13 -32 -7 -13 -11 -23 -8 -23 2 0 -6 -27 -19 -61 -14
-34 -24 -64 -23 -68 1 -3 -3 -16 -10 -28 -7 -13 -10 -23 -7 -23 3 0 -2 -14
-10 -31 -9 -17 -14 -33 -11 -36 3 -3 -1 -18 -9 -34 -9 -16 -14 -32 -13 -36 1
-4 -6 -33 -16 -63 -9 -30 -19 -66 -22 -80 -2 -14 -10 -38 -16 -53 -6 -15 -8
-30 -5 -34 4 -3 2 -14 -3 -24 -9 -15 -20 -67 -24 -109 -1 -9 -5 -20 -8 -25 -3
-6 -5 -21 -4 -35 1 -14 -2 -30 -6 -37 -5 -6 -11 -31 -13 -55 -3 -23 -7 -56
-11 -73 -3 -16 -7 -46 -9 -65 -2 -19 -7 -46 -10 -60 -4 -14 -8 -38 -10 -55 -8
-70 -13 -101 -18 -115 -3 -8 -5 -28 -4 -45 2 -16 -1 -35 -5 -41 -5 -6 -10 -41
-13 -78 -2 -36 -7 -70 -10 -76 -3 -5 -8 -38 -11 -72 -7 -99 -10 -124 -16 -134
-3 -5 -6 -29 -6 -54 -1 -25 -4 -58 -7 -75 -3 -16 -8 -48 -10 -70 -2 -22 -7
-65 -10 -95 -4 -30 -9 -98 -11 -150 -2 -52 -7 -144 -10 -205 -8 -146 -8 -1038
0 -1190 3 -66 8 -174 10 -240 2 -66 7 -145 11 -175 3 -30 8 -80 10 -110 2 -30
6 -66 10 -80 3 -14 8 -41 10 -60 2 -20 8 -48 14 -62 5 -14 7 -28 4 -32 -3 -3
2 -23 10 -44 9 -22 14 -42 11 -44 -2 -3 2 -24 10 -47 9 -23 16 -45 16 -49 2
-21 23 -88 31 -98 5 -6 6 -14 3 -17 -6 -6 17 -73 58 -164 10 -24 18 -47 18
-52 0 -5 7 -14 15 -21 9 -7 13 -15 11 -17 -17 -17 167 -252 219 -280 71 -37
86 -44 104 -48 12 -3 31 -8 44 -11 33 -10 127 -8 169 4 20 5 49 19 65 30 15
11 31 20 36 21 19 2 152 113 277 231 167 159 343 310 359 310 6 0 11 4 11 9 0
11 224 181 239 181 6 0 11 4 11 9 0 5 17 20 37 33 20 12 55 35 77 50 40 27
237 128 249 128 3 0 62 27 132 60 70 33 131 60 136 60 5 0 17 4 27 9 16 9 51
23 62 25 3 1 30 11 60 23 30 12 96 36 145 53 50 18 110 42 135 53 25 12 47 21
50 22 19 6 46 21 61 34 35 32 48 41 59 41 5 0 10 5 10 11 0 6 10 25 23 42 46
65 92 159 92 187 -1 8 3 18 8 21 5 4 10 20 11 36 2 16 6 36 11 43 4 7 9 32 11
54 2 23 6 66 10 96 8 67 8 204 0 285 -3 33 -8 83 -10 110 -2 28 -8 71 -13 97
-6 26 -8 49 -6 52 3 3 1 11 -3 18 -9 13 -9 18 -18 87 -3 24 -10 48 -15 55 -4
6 -7 21 -5 34 2 13 0 31 -5 41 -6 10 -12 36 -15 59 -3 22 -9 50 -15 60 -6 11
-8 22 -5 25 3 3 0 25 -7 48 -7 24 -13 55 -15 69 -1 14 -5 39 -9 55 -4 17 -7
38 -7 47 0 10 -4 20 -9 23 -5 4 -7 11 -4 16 4 5 3 14 -1 21 -4 6 -9 25 -10 42
-1 17 -7 48 -12 68 -5 20 -7 39 -5 42 3 2 1 11 -3 18 -4 7 -9 19 -10 28 -7 55
-15 99 -23 127 -5 17 -7 34 -4 37 3 3 2 13 -2 23 -9 20 -14 44 -19 88 -2 17
-4 30 -5 30 -4 0 -9 33 -15 89 -3 27 -10 54 -15 60 -4 6 -7 20 -5 31 2 11 -1
34 -7 51 -5 17 -11 46 -13 65 -2 19 -7 45 -11 59 -4 14 -6 36 -6 49 1 12 -2
28 -6 34 -8 13 -10 23 -17 95 -3 28 -8 56 -11 62 -3 5 -8 30 -11 56 -2 25 -8
53 -13 62 -4 10 -6 23 -4 30 3 7 2 20 -2 30 -8 18 -16 58 -17 82 0 8 -5 33
-10 55 -6 22 -12 57 -13 77 -2 20 -6 42 -10 49 -4 6 -9 32 -10 58 -1 26 -6 58
-10 71 -4 13 -9 40 -10 60 -2 19 -6 46 -9 60 -4 14 -8 44 -10 67 -2 22 -7 51
-11 63 -4 12 -8 43 -10 68 -2 26 -6 58 -10 72 -3 14 -8 45 -10 70 -3 25 -7 59
-10 75 -3 17 -7 53 -10 80 -2 28 -6 64 -9 80 -6 30 -17 137 -17 165 -1 8 -3
22 -6 30 -2 8 -6 42 -9 75 -2 33 -6 76 -9 95 -3 19 -7 67 -9 105 -3 39 -8 93
-11 120 -3 28 -8 93 -10 145 -2 52 -6 129 -10 170 -6 76 -15 412 -13 485 3 83
0 192 -6 240 -3 28 -6 68 -6 90 -1 22 -6 63 -12 90 -6 28 -12 61 -14 75 -1 14
-3 25 -4 25 -1 0 -4 13 -6 28 -22 131 -206 349 -309 365 -36 5 -153 11 -156 8z"/>
<path d="M21499 26115 c-34 -17 -80 -46 -101 -64 -38 -32 -81 -100 -84 -133
-1 -9 -5 -25 -9 -35 -4 -10 -9 -78 -11 -150 -1 -73 -5 -136 -7 -140 -3 -5 -3
-24 -1 -43 2 -19 6 -105 8 -190 2 -85 7 -177 11 -205 4 -27 9 -77 10 -110 2
-33 6 -78 10 -100 4 -22 7 -61 7 -88 0 -26 4 -49 9 -52 4 -3 6 -12 2 -20 -3
-8 -2 -23 2 -32 4 -10 8 -43 10 -73 2 -30 6 -72 10 -94 4 -21 8 -68 10 -105 2
-36 6 -97 10 -136 3 -38 8 -122 10 -185 2 -63 6 -180 9 -260 8 -186 8 -363 1
-520 -3 -69 -8 -188 -11 -265 -2 -77 -7 -162 -10 -190 -2 -27 -6 -81 -9 -120
-2 -38 -7 -88 -11 -110 -3 -22 -7 -58 -9 -80 -1 -22 -5 -51 -10 -65 -4 -14 -9
-36 -10 -50 -2 -14 -7 -44 -13 -67 -5 -24 -8 -43 -6 -43 3 0 -1 -10 -7 -22 -7
-13 -13 -34 -14 -48 -1 -14 -7 -38 -14 -53 -6 -16 -11 -34 -11 -41 0 -7 -3
-16 -7 -20 -5 -4 -8 -11 -8 -14 -1 -20 -29 -103 -36 -108 -5 -3 -9 -16 -9 -29
0 -13 -5 -27 -10 -30 -6 -4 -9 -12 -8 -18 1 -7 -3 -22 -10 -34 -7 -13 -10 -23
-7 -23 3 0 -2 -11 -11 -25 -9 -14 -12 -25 -8 -25 5 0 4 -4 -3 -8 -6 -4 -14
-20 -17 -36 -3 -15 -10 -34 -16 -41 -6 -7 -10 -17 -8 -21 1 -5 -8 -31 -20 -58
-12 -27 -22 -54 -22 -60 0 -7 -5 -17 -12 -24 -7 -7 -9 -12 -6 -12 4 0 -4 -28
-18 -62 -13 -34 -22 -64 -19 -66 3 -3 -2 -14 -12 -24 -9 -10 -13 -21 -10 -24
3 -4 0 -19 -9 -35 -8 -16 -12 -29 -9 -29 3 0 -2 -14 -10 -31 -9 -17 -14 -33
-11 -36 3 -3 1 -14 -5 -24 -28 -53 -29 -268 -1 -354 17 -55 52 -125 62 -125 6
0 10 -7 10 -15 0 -27 183 -193 220 -201 16 -3 47 -19 62 -32 9 -8 23 -12 30
-9 7 2 22 -1 33 -7 12 -7 94 -11 216 -12 108 0 200 -3 205 -7 5 -3 26 -4 47
-3 20 1 37 -2 37 -6 0 -4 21 -6 48 -5 26 2 71 -3 100 -10 30 -8 59 -12 65 -10
7 2 29 -2 50 -11 21 -8 40 -12 44 -9 3 4 21 0 41 -9 19 -8 37 -12 40 -10 2 3
17 -1 33 -10 16 -8 29 -12 29 -9 0 3 14 -1 30 -10 17 -9 30 -13 30 -10 0 14
138 -68 179 -105 25 -23 54 -49 67 -58 12 -9 78 -66 145 -126 172 -150 189
-165 189 -158 0 3 10 -4 23 -15 12 -12 40 -31 62 -44 68 -38 145 -78 148 -77
1 1 13 -2 27 -6 41 -14 82 -19 135 -18 76 1 95 4 101 13 3 5 12 9 20 9 26 0
149 128 190 197 21 37 39 70 39 73 1 3 9 20 19 38 9 19 19 41 21 50 6 25 26
85 37 105 5 11 7 21 4 24 -2 3 0 17 6 32 5 14 12 44 14 66 1 22 6 60 9 85 24
174 24 1248 -1 1355 -3 17 -6 37 -6 45 0 8 -4 32 -10 53 -5 21 -11 53 -13 70
-8 65 -17 113 -26 137 -5 14 -11 45 -14 69 -2 24 -9 49 -15 56 -5 6 -7 14 -4
17 3 3 0 26 -7 49 -7 24 -13 53 -14 65 -1 12 -5 30 -10 40 -4 10 -7 27 -6 36
1 10 -3 27 -10 39 -6 12 -13 34 -15 48 -8 68 -24 134 -34 146 -7 8 -9 18 -6
24 3 5 1 22 -6 38 -6 15 -10 32 -9 37 1 5 -1 16 -5 25 -9 20 -13 38 -19 73 -2
15 -9 36 -14 46 -6 11 -8 22 -5 24 2 3 -1 18 -7 34 -6 16 -13 42 -15 59 -3 16
-8 33 -13 38 -5 5 -7 15 -5 21 3 7 0 26 -7 42 -6 16 -13 38 -15 49 -7 52 -25
119 -34 130 -5 6 -7 15 -4 18 4 3 -1 24 -9 45 -9 22 -13 42 -10 45 3 3 1 12
-3 19 -5 7 -9 18 -10 23 -9 49 -14 66 -22 82 -6 10 -10 21 -11 26 -3 28 -25
98 -32 102 -4 3 -6 12 -3 20 3 7 0 24 -7 37 -7 13 -14 31 -16 40 -1 9 -10 36
-18 60 -9 24 -17 48 -19 53 -5 18 -17 49 -29 75 -6 14 -10 30 -8 37 1 6 -3 14
-9 18 -5 3 -10 14 -10 24 0 10 -7 24 -15 31 -8 7 -12 16 -10 21 3 4 1 16 -4
26 -5 10 -19 41 -31 68 -38 86 -55 120 -65 127 -5 4 -6 8 -1 8 4 0 1 11 -8 25
-9 14 -14 25 -11 25 2 0 -4 15 -14 33 -11 17 -34 61 -52 97 -17 36 -49 94 -70
129 -22 34 -39 65 -39 67 0 7 -116 178 -182 269 -32 44 -65 89 -72 100 -75
103 -181 246 -201 270 -13 17 -53 66 -87 110 -96 122 -165 204 -224 265 -30
30 -54 60 -55 65 -1 12 -178 170 -228 204 -20 14 -38 27 -41 30 -3 4 -32 20
-65 36 -50 24 -73 30 -137 31 -69 1 -85 -3 -139 -31z"/>
<path d="M6293 24535 c-10 -7 -23 -10 -31 -7 -8 3 -17 1 -21 -5 -3 -5 -24 -21
-45 -36 -115 -77 -359 -351 -461 -517 -32 -52 -75 -121 -96 -152 -22 -31 -39
-61 -39 -66 0 -5 -11 -19 -25 -32 -14 -13 -25 -27 -25 -31 0 -4 -27 -50 -60
-102 -33 -53 -60 -101 -60 -106 0 -6 -4 -11 -10 -11 -5 0 -10 -7 -10 -16 0 -9
-9 -29 -21 -45 -11 -16 -17 -29 -13 -29 4 0 0 -8 -9 -18 -9 -10 -37 -63 -63
-118 -25 -54 -59 -127 -76 -162 -26 -56 -48 -108 -53 -122 -1 -3 -11 -27 -23
-53 -12 -27 -22 -51 -22 -53 0 -2 -9 -23 -19 -47 -20 -44 -32 -78 -32 -87 0
-3 -7 -16 -15 -28 -9 -13 -13 -26 -10 -30 3 -3 0 -15 -7 -26 -13 -20 -51 -125
-49 -136 0 -3 -4 -10 -9 -16 -5 -7 -12 -20 -14 -30 -4 -19 -22 -73 -36 -109
-9 -24 -18 -56 -20 -70 0 -5 -5 -15 -9 -20 -5 -6 -11 -22 -14 -35 -3 -14 -13
-45 -22 -70 -9 -25 -18 -54 -19 -65 -1 -11 -7 -33 -13 -48 -7 -15 -11 -31 -10
-35 1 -4 -3 -17 -10 -30 -7 -12 -12 -28 -10 -35 1 -6 -4 -23 -11 -35 -7 -13
-10 -26 -8 -29 3 -3 -1 -23 -9 -45 -8 -23 -12 -43 -9 -46 3 -3 0 -11 -6 -18
-6 -8 -12 -28 -13 -47 -1 -18 -5 -38 -9 -44 -4 -5 -9 -25 -11 -44 -8 -49 -11
-63 -18 -74 -3 -5 -5 -21 -4 -35 1 -14 -2 -30 -6 -36 -5 -6 -10 -31 -11 -56
-2 -24 -6 -49 -10 -55 -4 -6 -10 -34 -13 -62 -8 -72 -12 -105 -15 -111 -1 -3
-3 -18 -5 -35 -1 -16 -5 -46 -9 -65 -4 -19 -8 -55 -10 -80 -1 -25 -5 -56 -9
-68 -5 -13 -10 -54 -13 -90 -6 -87 -9 -114 -16 -132 -3 -8 -6 -31 -6 -50 1
-19 -2 -57 -6 -85 -4 -27 -8 -79 -11 -115 -8 -120 -12 -165 -15 -165 -1 0 -4
-36 -5 -80 -2 -44 -6 -102 -10 -130 -5 -46 -9 -116 -18 -341 -2 -45 -6 -86 -8
-90 -7 -13 -2 -1059 5 -1119 4 -27 8 -79 11 -115 2 -36 7 -83 11 -105 4 -22 7
-47 7 -55 0 -8 5 -31 10 -50 6 -19 12 -50 13 -70 1 -19 7 -47 13 -61 6 -15 8
-29 5 -32 -13 -14 50 -117 104 -168 69 -66 111 -90 150 -85 80 10 141 55 425
307 104 93 305 259 313 259 3 0 14 8 25 18 11 9 62 43 113 74 50 31 100 63
109 72 9 8 19 12 22 9 3 -4 15 2 26 12 11 10 20 15 20 11 0 -3 23 5 50 19 28
14 50 23 50 20 0 -3 10 0 23 7 12 7 27 13 32 14 6 0 12 2 15 3 8 4 42 11 73
16 15 2 32 7 38 11 6 3 25 7 42 9 18 1 43 6 57 9 31 8 99 18 123 18 9 -1 17 2
17 6 0 4 19 8 43 8 23 1 53 5 67 8 14 4 45 9 70 11 25 2 57 6 72 9 16 4 52 8
80 11 29 2 64 6 78 10 14 3 52 7 85 10 33 2 76 7 95 10 19 4 58 7 85 7 160 -1
322 128 342 271 8 58 7 174 -1 222 -4 22 -9 56 -10 75 -2 19 -8 56 -14 83 -5
26 -8 47 -5 47 2 0 -2 10 -9 23 -7 12 -11 30 -9 39 1 10 -4 28 -11 40 -6 13
-11 29 -10 35 2 7 -4 26 -13 43 -8 16 -13 30 -10 30 3 0 -1 14 -10 30 -9 17
-13 30 -10 30 3 0 1 9 -5 21 -6 11 -13 30 -16 42 -2 12 -8 23 -13 25 -6 2 -8
9 -5 17 3 7 0 24 -7 37 -7 13 -14 30 -16 38 -1 8 -6 31 -9 50 -4 19 -13 44
-20 56 -8 11 -11 23 -8 27 3 3 0 23 -7 44 -7 21 -12 44 -10 51 1 8 -3 19 -8
26 -6 7 -12 26 -13 42 -1 16 -4 34 -7 39 -6 11 -9 25 -15 65 -2 14 -5 25 -6
25 -3 0 -10 48 -11 70 0 10 -3 24 -8 30 -4 5 -8 21 -10 35 -3 34 -8 65 -11 65
-1 0 -3 9 -5 20 -9 60 -16 96 -30 155 -8 36 -17 79 -19 95 -2 17 -7 44 -11 60
-4 17 -8 39 -10 50 -1 11 -3 20 -4 20 -3 0 -9 33 -15 78 -3 22 -9 44 -14 50
-5 7 -8 21 -6 31 1 11 -1 27 -6 35 -4 9 -10 32 -13 51 -8 54 -18 103 -24 120
-10 25 -14 44 -15 68 0 12 -5 25 -9 28 -5 3 -7 10 -4 15 4 5 3 15 -2 22 -4 6
-8 23 -9 37 -2 22 -9 55 -14 70 -1 3 -3 16 -4 30 -1 14 -6 43 -11 65 -5 22 -8
57 -8 78 0 20 -2 37 -6 37 -3 0 -7 15 -8 33 -1 17 -4 79 -7 137 -4 58 -8 132
-11 165 -3 33 -7 366 -9 740 -5 835 -15 1219 -31 1245 -5 8 -9 26 -10 40 -1
14 -7 35 -14 48 -6 12 -8 22 -4 22 4 0 2 5 -5 12 -7 7 -12 19 -12 28 0 23 -56
128 -101 187 -21 29 -58 65 -81 81 -42 28 -47 29 -161 29 -77 0 -123 -4 -134
-12z"/>
<path d="M14120 23179 c-19 -5 -51 -9 -70 -10 -19 -1 -39 -5 -45 -8 -14 -8
-37 -12 -59 -12 -11 0 -28 -5 -38 -10 -11 -6 -27 -12 -36 -14 -31 -7 -87 -30
-93 -38 -3 -5 -10 -9 -15 -9 -17 -1 -39 -11 -58 -27 -10 -9 -21 -15 -25 -15
-7 2 -139 -74 -151 -86 -3 -3 -18 -14 -35 -24 -76 -49 -275 -219 -275 -236 0
-6 -4 -10 -8 -10 -11 0 -132 -162 -179 -240 -33 -54 -66 -117 -114 -210 -16
-32 -69 -151 -70 -158 -1 -4 -10 -24 -20 -44 -11 -21 -17 -38 -14 -38 3 0 -1
-10 -8 -22 -8 -13 -25 -54 -37 -93 -12 -38 -26 -79 -31 -90 -8 -19 -18 -62
-22 -95 -1 -8 -5 -17 -9 -20 -4 -3 -10 -20 -13 -38 -3 -18 -12 -61 -21 -95 -9
-34 -17 -73 -19 -87 -2 -14 -6 -36 -10 -50 -4 -14 -9 -47 -11 -75 -2 -27 -6
-68 -10 -90 -21 -133 -20 -931 1 -965 4 -7 9 -33 10 -59 1 -25 6 -57 9 -71 4
-14 9 -45 12 -69 2 -24 7 -48 11 -54 3 -6 7 -24 8 -41 0 -17 4 -36 8 -42 4 -6
9 -32 11 -58 3 -26 8 -52 12 -58 4 -6 8 -25 9 -42 1 -17 5 -42 9 -56 4 -14 9
-40 10 -58 2 -18 8 -38 14 -45 5 -7 8 -22 6 -35 -2 -13 1 -32 6 -43 6 -11 13
-40 16 -65 2 -26 7 -51 11 -57 4 -6 8 -20 9 -31 1 -12 5 -32 8 -46 4 -14 9
-34 11 -45 2 -11 8 -34 13 -52 6 -17 8 -34 5 -36 -2 -3 2 -18 11 -35 8 -16 13
-32 10 -34 -2 -3 0 -18 6 -34 6 -16 10 -29 9 -29 -1 0 3 -10 10 -23 7 -13 14
-32 16 -43 2 -11 11 -34 20 -51 8 -17 15 -37 15 -43 0 -7 7 -18 15 -25 8 -7
13 -15 10 -19 -8 -14 194 -408 218 -423 7 -4 8 -8 4 -8 -10 0 39 -72 132 -192
80 -102 159 -209 176 -236 19 -31 231 -237 305 -298 85 -70 284 -203 310 -209
3 0 28 -12 55 -25 28 -13 55 -24 60 -25 6 0 19 -6 30 -12 35 -19 198 -74 203
-68 3 3 16 -2 29 -11 13 -8 30 -13 36 -11 7 2 26 -2 43 -9 17 -7 39 -11 50
-10 10 2 30 -1 44 -7 14 -5 54 -12 90 -14 114 -9 127 -10 136 -15 5 -3 131 -5
280 -4 200 1 275 4 286 13 8 7 17 10 21 7 3 -3 27 4 54 17 26 12 53 21 59 20
6 -1 17 6 24 14 7 8 18 15 24 15 20 0 149 92 227 162 42 37 79 68 81 68 6 0
280 277 338 340 71 79 139 186 215 337 80 162 107 223 98 223 -3 0 2 11 10 24
9 13 18 34 20 47 2 13 6 31 9 39 4 8 11 38 18 65 6 28 15 66 20 85 5 19 9 42
9 50 0 18 5 38 16 63 4 10 5 20 2 23 -3 4 -2 17 4 31 5 13 12 48 15 76 8 67
12 92 14 92 2 0 4 9 5 20 1 11 6 38 10 60 4 22 9 58 10 80 2 22 6 54 11 70 4
17 7 100 6 185 0 171 -1 188 -9 210 -3 8 -7 38 -8 67 -2 28 -6 57 -10 64 -5 6
-9 26 -10 43 -1 17 -5 42 -9 56 -4 14 -9 40 -10 58 -2 18 -9 39 -15 46 -6 7
-8 16 -5 19 4 3 3 14 -1 24 -5 10 -10 29 -12 43 -2 14 -9 40 -14 58 -6 18 -12
43 -14 55 -1 12 -8 34 -14 50 -6 15 -8 27 -5 27 2 0 -2 13 -10 29 -9 16 -13
31 -10 33 2 3 -3 21 -11 41 -8 21 -13 37 -10 37 3 0 0 10 -7 23 -7 12 -11 28
-10 34 2 7 -3 23 -10 35 -6 13 -13 28 -14 33 0 6 -2 12 -3 15 -3 5 -7 22 -15
58 -3 12 -8 27 -11 32 -4 6 -9 22 -11 37 -3 15 -8 31 -12 37 -3 6 -7 16 -7 21
0 13 -34 115 -46 140 -6 12 -11 27 -13 35 -9 48 -19 78 -34 105 -9 17 -15 31
-13 33 6 5 -12 68 -25 90 -8 12 -12 22 -9 22 3 0 0 10 -7 23 -7 12 -12 27 -13
32 0 15 -37 109 -47 120 -4 5 -8 17 -8 27 0 9 -9 33 -20 53 -11 20 -20 40 -20
44 0 5 -19 49 -42 98 -23 48 -42 90 -43 93 -9 26 -21 48 -34 64 -9 10 -15 20
-13 22 4 7 -28 78 -45 96 -9 10 -13 18 -10 18 4 0 -7 22 -23 49 -17 26 -30 51
-30 54 0 15 -242 390 -266 412 -6 6 -33 39 -60 75 -68 91 -236 255 -319 314
-39 28 -72 53 -75 56 -3 3 -21 14 -40 23 -33 17 -71 38 -176 100 -25 15 -50
27 -55 27 -5 0 -9 5 -9 10 0 6 -8 10 -18 10 -10 0 -22 4 -28 10 -13 13 -156
71 -162 65 -3 -3 -10 0 -17 5 -6 5 -29 12 -51 16 -21 3 -46 10 -54 14 -8 4
-26 7 -40 6 -14 -1 -31 2 -38 8 -17 12 -411 16 -462 5z"/>
<path d="M18596 22522 c-3 -3 -21 -6 -38 -8 -80 -6 -121 -21 -208 -77 -36 -24
-78 -49 -95 -57 -240 -118 -662 -593 -835 -940 -39 -78 -82 -172 -84 -184 -1
-6 -7 -21 -14 -33 -7 -12 -11 -26 -10 -30 1 -4 -3 -17 -9 -28 -6 -11 -11 -22
-11 -25 1 -9 -44 -154 -55 -177 -5 -11 -7 -26 -3 -31 3 -6 2 -13 -3 -17 -6 -3
-13 -24 -16 -48 -9 -60 -11 -70 -20 -90 -4 -10 -5 -21 -2 -24 4 -3 2 -14 -4
-24 -5 -11 -12 -43 -14 -72 -3 -28 -7 -63 -10 -77 -4 -14 -8 -43 -10 -65 -3
-22 -7 -60 -11 -85 -3 -25 -8 -79 -10 -120 -2 -41 -7 -118 -10 -170 -9 -116
-8 -483 0 -600 3 -47 7 -119 9 -160 1 -41 5 -80 10 -87 4 -6 4 -18 1 -27 -3
-8 -2 -21 2 -27 4 -7 7 -33 7 -58 0 -25 4 -57 10 -71 5 -14 9 -38 8 -53 -1
-15 4 -37 10 -48 5 -11 11 -34 11 -50 1 -16 5 -32 10 -35 4 -3 8 -17 8 -32 0
-15 7 -37 15 -48 8 -12 12 -24 9 -27 -3 -3 2 -19 11 -36 8 -17 13 -31 10 -31
-3 0 2 -11 11 -25 9 -14 13 -25 9 -25 -5 0 0 -9 10 -20 10 -11 15 -20 11 -20
-19 0 161 -291 238 -385 132 -162 268 -292 386 -372 52 -35 200 -114 200 -107
0 2 14 -2 30 -11 17 -9 30 -13 30 -10 0 3 11 -2 25 -11 14 -9 28 -14 32 -11 3
4 14 2 24 -3 28 -16 115 -24 239 -23 172 2 192 3 231 18 20 8 39 12 41 9 3 -2
24 2 46 10 23 9 42 13 42 10 0 -2 10 1 23 8 12 7 27 11 34 10 6 -1 14 2 18 8
3 5 12 10 19 10 8 0 34 9 60 20 25 12 48 21 51 20 3 0 42 19 88 42 109 56 215
136 285 215 61 69 162 210 162 227 0 5 6 17 14 25 19 22 97 171 89 171 -3 0 2
9 12 20 10 11 14 20 9 20 -5 0 -4 4 1 8 9 6 37 57 40 72 0 3 13 32 29 64 16
33 29 66 30 73 1 7 8 19 14 25 7 7 12 18 12 25 0 7 4 21 9 31 14 25 24 56 23
65 -1 4 2 7 6 7 7 0 30 58 37 90 0 3 6 15 13 28 7 12 10 22 7 22 -3 0 -1 9 5
21 6 11 13 28 15 37 3 9 16 51 30 92 27 79 60 201 70 259 3 19 8 38 12 43 3 5
7 26 8 46 2 20 4 37 5 37 3 0 11 38 15 70 2 17 7 46 11 65 3 19 8 62 11 95 6
90 11 130 13 130 2 0 4 77 5 171 1 94 5 176 9 182 4 7 4 17 0 23 -4 7 -8 102
-9 213 -1 111 -3 201 -4 201 -2 0 -4 27 -5 60 -2 33 -4 60 -5 60 -1 0 -4 38
-6 85 -2 47 -6 101 -10 120 -3 19 -7 65 -9 102 -2 37 -7 72 -12 79 -4 7 -8 31
-10 53 -2 37 -10 81 -14 81 -1 0 -3 14 -5 30 -8 68 -50 187 -97 273 -49 89
-62 109 -84 139 -13 17 -24 35 -24 39 0 4 -11 22 -26 41 -14 18 -23 33 -20 33
2 0 -4 10 -14 23 -11 12 -43 51 -73 87 -64 77 -109 115 -237 200 -91 60 -112
73 -197 121 -21 12 -42 24 -48 27 -5 4 -12 7 -15 7 -3 1 -34 16 -69 33 -36 18
-67 30 -69 27 -3 -3 -11 0 -18 6 -7 6 -34 11 -59 12 -24 1 -45 5 -45 8 0 7
-24 8 -217 13 -84 2 -154 1 -157 -2z"/>
<path d="M10349 21226 c-2 -3 -47 -7 -99 -10 -101 -6 -141 -10 -177 -20 -13
-3 -33 -8 -45 -11 -99 -21 -364 -198 -491 -326 -21 -22 -42 -39 -47 -39 -5 0
-11 -8 -14 -17 -4 -10 -31 -45 -62 -77 -30 -32 -62 -72 -70 -88 -8 -15 -23
-34 -34 -41 -11 -6 -20 -16 -20 -21 0 -8 -23 -47 -78 -132 -35 -55 -102 -184
-95 -184 3 0 -1 -8 -9 -17 -14 -16 -31 -56 -33 -75 0 -3 -4 -10 -8 -15 -13
-13 -38 -75 -32 -81 3 -3 -1 -12 -7 -20 -7 -8 -13 -19 -14 -26 -2 -10 -15 -47
-32 -96 -3 -8 -6 -19 -7 -25 0 -5 -4 -15 -7 -21 -7 -10 -21 -61 -34 -123 -3
-14 -7 -28 -9 -31 -2 -4 -7 -20 -9 -36 -3 -16 -8 -40 -12 -54 -3 -14 -7 -36
-8 -50 -1 -14 -6 -31 -10 -38 -4 -7 -5 -16 -1 -21 3 -5 1 -12 -4 -15 -5 -4 -9
-21 -9 -39 0 -17 -1 -34 -2 -37 -6 -17 -12 -52 -16 -100 -3 -30 -8 -75 -10
-100 -3 -25 -7 -72 -10 -105 -2 -33 -6 -91 -9 -130 -8 -101 -14 -458 -7 -469
3 -5 7 -39 9 -75 6 -131 10 -186 12 -186 3 0 11 -78 13 -115 0 -14 6 -45 13
-70 7 -25 11 -54 9 -64 -1 -11 2 -29 8 -40 7 -12 11 -34 10 -49 -1 -15 3 -38
10 -50 7 -12 11 -30 9 -39 -1 -10 3 -26 9 -37 5 -11 12 -33 14 -48 5 -34 22
-88 32 -105 4 -7 9 -23 10 -35 2 -13 10 -37 18 -55 9 -17 16 -37 16 -45 0 -13
30 -85 55 -133 7 -14 14 -29 15 -35 2 -15 32 -78 44 -94 5 -7 11 -20 13 -29 1
-9 6 -18 12 -20 5 -2 7 -10 4 -18 -3 -8 -1 -14 4 -14 6 0 21 -21 34 -47 13
-27 27 -49 32 -51 4 -2 7 -10 7 -18 0 -8 11 -26 25 -39 13 -14 22 -25 19 -25
-9 0 99 -150 184 -255 30 -37 214 -225 291 -297 92 -87 199 -158 346 -231 33
-16 85 -42 116 -58 31 -16 58 -26 61 -24 3 3 11 -1 18 -10 7 -8 17 -15 22 -15
5 0 25 -7 46 -17 20 -9 39 -17 42 -18 3 -1 19 -7 35 -14 51 -23 69 -29 110
-42 22 -6 50 -16 62 -22 13 -6 26 -8 29 -4 4 3 16 1 27 -4 54 -29 409 -29 527
1 25 6 59 13 75 16 17 3 34 10 39 15 6 5 18 9 28 9 9 0 33 9 53 20 20 11 42
20 49 20 7 0 19 7 26 15 7 9 15 13 17 11 7 -6 165 87 248 147 66 48 86 63 166
131 133 112 299 301 393 449 51 80 148 267 139 267 -4 0 0 7 10 14 10 8 17 18
15 22 -1 5 3 19 10 32 7 12 10 22 7 22 -3 0 1 13 10 30 8 16 16 33 16 37 0 5
6 31 14 58 8 28 15 53 15 57 1 4 7 26 16 49 8 23 12 44 10 46 -3 3 2 23 10 45
8 23 12 43 10 46 -3 2 2 18 10 34 8 16 13 35 11 41 -2 7 0 20 5 30 5 10 11 31
13 48 2 16 8 44 14 62 6 17 9 41 7 52 -2 11 1 25 6 32 5 7 7 17 4 22 -4 5 -2
12 3 15 5 4 8 21 7 39 -1 17 2 37 6 43 4 6 10 35 13 65 3 30 8 65 11 79 21 98
23 684 2 705 -4 4 -4 13 -1 21 3 8 1 20 -5 27 -5 6 -8 23 -6 36 3 14 -1 41 -8
60 -6 20 -12 50 -14 68 -1 17 -5 37 -9 43 -4 6 -9 26 -12 43 -3 18 -9 39 -14
48 -4 9 -6 19 -3 22 3 3 0 16 -7 29 -7 12 -14 30 -14 38 -2 25 -26 104 -36
116 -5 6 -6 14 -3 17 4 4 2 19 -4 34 -6 15 -13 39 -16 53 -2 14 -7 32 -10 40
-6 16 -14 54 -23 105 -3 17 -9 35 -13 40 -4 6 -13 33 -20 60 -7 28 -19 57 -27
66 -7 9 -11 18 -8 21 10 9 -76 169 -146 273 -150 221 -388 481 -585 635 -164
129 -284 206 -456 293 -93 47 -205 100 -218 102 -3 0 -15 6 -28 13 -12 7 -26
10 -31 7 -5 -3 -11 0 -13 6 -2 7 -13 13 -24 14 -10 1 -29 7 -41 13 -13 7 -23
10 -23 7 0 -3 -10 1 -22 9 -13 8 -32 14 -43 12 -11 -2 -26 1 -32 6 -16 13 -70
18 -244 23 -74 2 -142 7 -150 10 -8 3 -17 4 -20 1z"/>
<path d="M21595 20422 c-2 -3 -26 -6 -52 -8 -100 -8 -158 -16 -208 -29 -5 -1
-25 -6 -43 -10 -18 -4 -35 -12 -38 -16 -3 -5 -12 -9 -19 -9 -20 0 -129 -50
-133 -61 -2 -5 -7 -7 -10 -5 -17 10 -230 -157 -231 -181 -1 -7 -5 -13 -9 -13
-4 0 -34 -36 -66 -81 -33 -44 -65 -87 -73 -94 -7 -8 -13 -16 -13 -20 0 -3 -9
-16 -21 -28 -29 -31 -102 -135 -151 -214 -64 -106 -150 -268 -154 -292 -2 -8
-6 -17 -11 -20 -5 -3 -28 -53 -52 -111 -25 -58 -48 -110 -53 -117 -6 -7 -7
-17 -4 -22 4 -5 2 -12 -3 -15 -5 -4 -17 -30 -26 -59 -9 -28 -20 -61 -25 -72
-17 -39 -30 -88 -25 -93 2 -3 0 -13 -6 -24 -5 -10 -12 -33 -14 -51 -3 -18 -8
-50 -12 -72 -6 -37 -9 -871 -3 -978 1 -26 6 -49 10 -52 4 -3 6 -19 4 -37 -2
-18 2 -49 10 -69 8 -20 13 -39 10 -42 -3 -3 1 -18 9 -34 8 -15 12 -33 10 -40
-2 -7 1 -22 8 -35 8 -13 12 -27 11 -31 -1 -4 3 -18 10 -30 7 -12 11 -25 10
-30 -3 -10 92 -206 112 -232 8 -11 42 -56 75 -100 59 -80 257 -285 276 -285 3
0 22 -12 41 -27 18 -16 37 -28 41 -28 5 0 22 -10 39 -22 17 -12 42 -27 55 -33
13 -5 31 -14 39 -19 33 -20 140 -64 148 -61 1 0 16 -7 32 -15 17 -9 30 -13 30
-10 0 3 13 -1 30 -10 16 -8 33 -15 37 -14 4 1 10 0 13 -1 11 -4 46 -11 71 -14
15 -2 32 -7 39 -11 6 -4 37 -9 68 -11 31 -2 73 -6 92 -9 48 -6 175 -6 233 0
26 3 66 6 90 9 24 2 53 9 65 15 12 6 22 10 22 7 0 -12 156 55 225 97 31 19
139 91 145 97 3 3 32 27 65 54 33 27 82 72 108 100 67 71 191 260 227 346 6
14 30 66 55 115 67 138 105 222 105 232 0 6 7 24 16 42 9 17 17 37 18 44 2 7
6 20 10 29 4 9 9 22 10 30 1 7 8 24 15 36 7 13 10 26 7 29 -3 4 -2 11 3 17 5
6 15 31 22 56 7 25 14 50 15 55 12 37 36 134 39 154 2 13 9 36 16 52 6 16 9
32 6 35 -3 3 -1 20 5 37 5 18 11 46 14 62 2 17 6 41 10 55 3 13 8 40 10 60 2
19 7 46 10 60 3 14 7 41 9 60 2 19 6 51 10 70 4 19 9 60 11 90 2 30 6 71 9 90
23 134 19 605 -5 670 -1 3 -2 13 -1 22 1 9 -3 36 -10 60 -7 24 -12 49 -10 55
1 7 -4 23 -11 35 -7 13 -11 27 -10 32 3 9 -11 52 -30 91 -5 12 -10 27 -12 35
-6 38 -29 90 -38 90 -6 0 -9 3 -5 6 9 9 -63 110 -120 169 -26 28 -57 61 -68
75 -26 32 -150 140 -197 173 -21 13 -34 28 -30 32 4 5 -1 6 -10 2 -9 -3 -18 0
-21 7 -5 14 -220 124 -254 131 -12 2 -31 9 -42 15 -12 6 -21 8 -21 5 0 -3 -13
1 -28 9 -16 8 -37 13 -48 12 -10 -2 -25 2 -33 8 -8 6 -16 10 -18 9 -1 -2 -4
-2 -5 -2 -4 2 -88 10 -125 12 -18 1 -33 5 -33 8 0 7 -288 8 -295 1z"/>
<path d="M6403 18582 c-13 -2 -23 -7 -23 -12 0 -5 -10 -7 -21 -5 -12 2 -31 -1
-43 -7 -11 -7 -25 -11 -29 -10 -4 1 -18 -3 -30 -10 -12 -7 -27 -13 -33 -14
-41 -7 -207 -99 -284 -158 -54 -41 -239 -211 -230 -211 3 0 -1 -7 -7 -15 -76
-91 -204 -282 -208 -310 0 -3 -8 -16 -17 -30 -9 -14 -38 -72 -63 -130 -25 -58
-50 -113 -55 -122 -6 -10 -10 -26 -10 -36 0 -10 -4 -22 -9 -27 -9 -10 -59
-161 -67 -204 -3 -13 -10 -33 -15 -43 -6 -11 -8 -22 -5 -25 3 -3 1 -14 -5 -25
-6 -10 -12 -38 -15 -60 -3 -23 -8 -46 -11 -52 -6 -9 -11 -95 -17 -282 -2 -56
-6 -105 -9 -110 -6 -12 0 -361 8 -444 4 -36 7 -87 7 -115 -1 -27 2 -57 5 -65
9 -20 13 -49 14 -85 0 -16 4 -46 9 -65 5 -20 12 -56 15 -80 3 -24 10 -49 15
-55 6 -7 8 -14 5 -17 -3 -3 2 -32 11 -64 8 -32 19 -73 23 -89 4 -17 13 -40 20
-53 6 -12 9 -22 6 -22 -3 0 1 -13 10 -30 9 -16 13 -30 9 -30 -3 0 1 -11 10
-25 9 -14 14 -25 11 -25 -3 0 4 -18 15 -40 11 -21 20 -46 20 -54 0 -8 3 -16 8
-18 4 -2 24 -38 46 -80 21 -43 42 -78 47 -78 5 0 6 -7 3 -15 -4 -8 -2 -15 3
-15 11 0 73 -95 73 -111 0 -5 4 -9 8 -9 8 0 72 -86 72 -97 0 -15 351 -352 398
-382 28 -19 52 -38 52 -43 0 -4 5 -8 11 -8 6 0 30 -14 55 -30 24 -17 44 -28
44 -24 0 4 8 0 18 -8 15 -13 88 -51 102 -53 3 0 15 -6 28 -13 12 -7 22 -10 22
-7 0 3 13 -1 30 -10 16 -8 33 -14 37 -13 4 1 18 -3 31 -11 13 -7 28 -10 35 -8
7 2 27 -2 46 -9 19 -8 36 -12 39 -10 2 3 16 0 31 -6 14 -5 44 -12 66 -13 22
-2 51 -7 65 -11 14 -4 54 -8 90 -8 36 -1 70 -5 76 -8 18 -12 339 9 339 22 0 1
11 3 25 4 35 3 81 15 109 29 13 6 29 12 35 12 27 2 73 19 90 34 10 9 21 15 25
14 11 -4 45 9 81 32 19 12 38 23 43 23 41 7 309 190 423 290 17 15 53 45 80
67 87 71 278 268 327 337 77 109 145 251 162 337 2 13 9 28 14 35 5 6 8 21 7
31 -2 11 1 29 7 40 6 11 11 29 12 40 1 11 7 40 14 64 7 23 10 49 7 56 -2 7 0
17 5 22 5 5 11 28 13 51 3 23 7 46 11 51 3 6 8 41 11 78 2 37 7 93 10 123 10
89 5 325 -6 325 -1 0 -3 32 -4 71 -2 39 -6 76 -10 82 -3 6 -8 36 -11 66 -2 30
-8 63 -13 73 -5 10 -7 24 -5 30 3 7 -1 30 -8 50 -7 21 -13 49 -13 63 -1 14 -4
30 -8 35 -3 6 -9 30 -13 54 -3 24 -10 54 -15 67 -5 13 -7 24 -4 24 2 0 -2 12
-9 28 -8 15 -12 32 -10 39 2 6 -3 25 -11 41 -8 16 -13 32 -10 35 3 3 -1 18
-10 35 -8 16 -13 32 -10 35 3 3 0 16 -7 29 -7 12 -12 27 -11 31 1 4 -5 21 -13
37 -9 17 -12 30 -8 30 4 0 2 5 -5 12 -7 7 -12 20 -12 29 0 9 -7 22 -15 29 -8
7 -13 15 -11 19 2 3 -4 22 -14 41 -11 19 -24 46 -30 60 -12 27 -163 228 -248
330 -129 154 -313 329 -449 425 -68 49 -158 98 -167 92 -2 -1 -13 7 -25 17
-12 11 -21 16 -21 12 0 -4 -10 -1 -22 6 -13 7 -25 13 -28 13 -3 0 -18 5 -35
12 -16 6 -39 15 -50 19 -11 4 -27 8 -35 8 -8 1 -25 7 -37 14 -12 7 -30 12 -41
12 -10 0 -22 3 -26 7 -3 4 -17 9 -29 11 -29 5 -39 8 -58 16 -9 4 -20 6 -25 4
-5 -1 -19 3 -32 11 -13 7 -28 10 -35 8 -7 -2 -20 0 -29 5 -19 9 -106 28 -155
34 -18 2 -41 7 -50 13 -10 5 -35 9 -55 9 -20 0 -43 4 -50 8 -13 9 -350 14
-395 6z"/>
<path d="M17078 17225 c-5 -5 -150 -17 -203 -17 -27 0 -54 -3 -60 -6 -5 -3
-32 -7 -60 -9 -79 -6 -120 -10 -120 -12 0 -3 -40 -9 -105 -14 -30 -2 -66 -9
-80 -14 -14 -6 -31 -8 -37 -6 -7 3 -27 0 -45 -6 -18 -5 -53 -13 -78 -16 -24
-4 -48 -9 -53 -12 -4 -2 -24 -7 -45 -9 -20 -3 -41 -9 -46 -14 -4 -4 -14 -6
-20 -4 -7 3 -26 -1 -42 -7 -16 -7 -36 -13 -44 -14 -8 0 -30 -5 -47 -9 -18 -4
-36 -8 -40 -8 -5 0 -16 -4 -26 -10 -10 -5 -30 -12 -45 -14 -14 -3 -30 -8 -36
-12 -6 -3 -15 -7 -21 -7 -16 -1 -89 -27 -101 -36 -6 -5 -14 -6 -17 -2 -4 3
-16 -2 -27 -12 -11 -10 -20 -15 -20 -11 0 4 -10 1 -22 -6 -13 -6 -28 -13 -35
-14 -7 -1 -37 -14 -67 -28 -30 -14 -59 -26 -63 -26 -5 0 -14 -5 -21 -12 -6 -6
-18 -13 -25 -14 -32 -4 -578 -284 -611 -313 -10 -9 -19 -14 -20 -12 0 3 -29
-12 -64 -32 -35 -20 -67 -37 -73 -37 -5 0 -9 -4 -9 -8 0 -4 -25 -20 -55 -36
-30 -15 -55 -32 -55 -38 0 -6 -3 -9 -6 -5 -3 3 -22 -4 -42 -16 -119 -68 -452
-236 -482 -241 -3 -1 -12 -6 -20 -11 -8 -5 -20 -10 -26 -11 -6 -1 -37 -14 -70
-29 -32 -14 -68 -30 -79 -35 -11 -4 -33 -13 -50 -21 -16 -7 -34 -12 -38 -11
-4 1 -18 -3 -30 -10 -12 -7 -26 -13 -32 -14 -5 -1 -41 -14 -80 -29 -38 -14
-78 -28 -89 -30 -10 -2 -24 -9 -30 -15 -7 -5 -15 -7 -19 -4 -3 3 -16 0 -29 -7
-12 -7 -30 -14 -38 -15 -8 -1 -40 -9 -70 -18 -30 -9 -62 -18 -70 -20 -8 -1
-22 -5 -30 -8 -14 -6 -85 -23 -135 -32 -11 -2 -33 -8 -50 -12 -16 -4 -38 -7
-47 -5 -10 1 -18 -2 -18 -7 0 -5 -6 -9 -12 -10 -50 -3 -110 -11 -127 -17 -11
-3 -46 -8 -78 -10 -32 -2 -74 -7 -93 -10 -19 -4 -57 -8 -85 -9 -27 -2 -52 -4
-55 -5 -7 -3 -110 -11 -210 -16 -47 -2 -112 -6 -145 -10 -33 -3 -206 -8 -385
-10 -179 -2 -350 -6 -380 -9 -30 -3 -82 -8 -115 -10 -33 -3 -76 -7 -95 -10
-19 -3 -59 -8 -88 -10 -29 -3 -58 -8 -64 -13 -7 -4 -26 -8 -43 -9 -16 -1 -32
-2 -35 -4 -3 -1 -9 -3 -15 -5 -5 -1 -12 -3 -15 -4 -3 -1 -22 -4 -43 -6 -20 -2
-43 -8 -50 -12 -6 -4 -22 -6 -34 -4 -13 1 -28 -1 -35 -6 -7 -4 -16 -8 -20 -9
-5 -1 -9 -2 -10 -4 -2 -1 -18 -3 -37 -5 -18 -2 -38 -8 -44 -14 -5 -5 -15 -7
-21 -5 -7 3 -26 -1 -42 -7 -16 -7 -42 -13 -57 -15 -16 -1 -34 -7 -41 -13 -7
-6 -16 -8 -19 -5 -4 4 -19 2 -34 -4 -15 -5 -37 -13 -48 -18 -25 -9 -44 -14
-70 -18 -11 -1 -30 -8 -43 -15 -12 -6 -22 -9 -22 -6 0 3 -9 1 -21 -5 -11 -7
-33 -14 -47 -16 -15 -3 -40 -12 -56 -20 -16 -8 -33 -14 -37 -14 -4 0 -20 -5
-36 -12 -15 -6 -33 -10 -40 -9 -6 1 -14 -3 -18 -9 -3 -5 -14 -10 -23 -10 -14
0 -123 -39 -207 -75 -11 -4 -24 -7 -29 -6 -5 1 -16 -5 -26 -14 -9 -8 -19 -12
-23 -9 -4 4 -18 -1 -32 -10 -14 -9 -25 -13 -25 -10 0 4 -8 0 -18 -9 -10 -10
-21 -14 -24 -11 -4 3 -27 -6 -52 -20 -25 -14 -46 -23 -46 -20 0 4 -11 -1 -25
-10 -14 -9 -25 -14 -25 -11 0 2 -19 -5 -42 -17 -24 -13 -47 -23 -53 -24 -24
-4 -323 -149 -390 -190 -22 -13 -48 -27 -57 -30 -10 -4 -18 -9 -18 -13 0 -4
-15 -15 -34 -24 -19 -9 -62 -37 -96 -64 -34 -26 -69 -52 -77 -58 -32 -21 -66
-53 -373 -356 -173 -171 -341 -341 -372 -377 -32 -37 -72 -83 -89 -102 -16
-19 -41 -52 -55 -72 -13 -21 -29 -38 -34 -38 -6 0 -10 -4 -10 -8 0 -8 -117
-191 -140 -219 -6 -7 -10 -16 -10 -21 0 -4 -13 -29 -30 -55 -16 -26 -28 -47
-25 -47 2 0 -15 -33 -39 -72 -23 -40 -52 -93 -65 -118 -12 -25 -31 -60 -41
-77 -11 -18 -17 -33 -15 -33 3 0 -6 -17 -19 -38 -21 -33 -98 -188 -101 -202
-1 -5 -42 -93 -57 -123 -5 -10 -6 -22 -3 -27 4 -6 2 -10 -4 -10 -5 0 -13 -10
-17 -22 -3 -12 -13 -37 -22 -57 -9 -20 -16 -40 -18 -46 -1 -5 -16 -40 -33 -78
-17 -37 -31 -69 -31 -72 0 -2 -18 -41 -39 -87 -35 -74 -52 -112 -56 -128 -4
-19 -29 -87 -34 -95 -3 -5 -6 -15 -7 -22 -4 -25 -27 -89 -37 -101 -5 -7 -7
-15 -4 -18 3 -3 -1 -24 -9 -46 -8 -23 -12 -43 -9 -46 3 -3 0 -11 -6 -18 -6 -7
-11 -25 -13 -41 -1 -15 -5 -33 -9 -39 -4 -7 -9 -29 -13 -50 -3 -22 -9 -43 -12
-49 -3 -5 -7 -23 -9 -40 -1 -16 -5 -43 -9 -60 -24 -120 -24 -837 1 -965 4 -19
7 -48 7 -65 0 -16 4 -44 9 -61 5 -17 11 -52 13 -77 3 -25 9 -54 14 -63 5 -9 7
-25 5 -34 -3 -10 1 -29 8 -41 7 -13 12 -31 11 -40 -2 -9 3 -29 9 -45 6 -16 13
-42 15 -57 2 -16 8 -36 14 -46 5 -10 7 -21 3 -24 -3 -4 0 -13 6 -21 7 -8 14
-32 16 -53 2 -20 8 -39 14 -41 6 -2 9 -7 6 -12 -3 -4 2 -26 10 -49 8 -23 12
-41 9 -41 -2 0 2 -13 11 -30 9 -16 13 -30 10 -30 -3 0 0 -10 7 -22 7 -13 11
-29 10 -35 -2 -7 3 -23 10 -35 6 -13 12 -27 13 -33 0 -12 32 -110 45 -140 11
-25 51 -154 56 -179 2 -10 8 -24 14 -30 5 -7 7 -15 4 -19 -3 -3 0 -16 7 -29 7
-12 12 -27 11 -31 -1 -4 3 -17 9 -28 6 -11 12 -28 14 -37 3 -17 31 -105 42
-132 3 -8 8 -25 10 -38 2 -12 9 -35 15 -50 6 -15 11 -30 10 -34 -1 -4 5 -22
13 -41 8 -19 12 -37 9 -40 -3 -3 -2 -12 2 -19 9 -13 12 -26 18 -63 2 -11 4
-20 6 -20 2 0 10 -44 11 -65 0 -8 5 -28 10 -45 5 -16 11 -52 13 -80 3 -27 8
-61 11 -75 4 -14 8 -52 10 -85 1 -33 3 -60 4 -60 3 0 10 -87 15 -185 3 -47 8
-132 11 -190 8 -121 8 -181 -1 -300 -3 -47 -7 -114 -8 -150 -2 -36 -7 -77 -11
-90 -5 -14 -9 -45 -10 -70 -1 -25 -5 -52 -9 -59 -5 -7 -10 -30 -11 -50 -2 -20
-5 -43 -9 -51 -3 -8 -8 -28 -11 -45 -9 -46 -10 -49 -18 -62 -5 -7 -6 -13 -3
-13 3 0 1 -12 -5 -27 -6 -16 -13 -37 -15 -48 -3 -23 -22 -79 -37 -112 -6 -13
-7 -26 -4 -30 4 -3 2 -11 -3 -18 -5 -6 -12 -29 -16 -50 -3 -21 -10 -48 -14
-60 -5 -12 -7 -34 -6 -49 2 -15 -1 -29 -6 -32 -5 -3 -7 -12 -4 -20 3 -7 1 -16
-4 -19 -5 -3 -8 -16 -6 -28 2 -12 -3 -47 -9 -77 -7 -30 -13 -71 -14 -90 -1
-19 -4 -51 -7 -70 -3 -19 -7 -53 -9 -75 -2 -22 -6 -53 -10 -70 -3 -16 -8 -50
-10 -75 -3 -25 -7 -56 -11 -70 -3 -14 -7 -42 -9 -62 -2 -21 -7 -47 -10 -59 -4
-12 -9 -47 -11 -78 -1 -31 -6 -67 -9 -81 -4 -14 -8 -48 -10 -76 -1 -28 -6 -62
-10 -75 -5 -13 -9 -44 -10 -69 -1 -25 -5 -52 -9 -61 -4 -9 -6 -20 -5 -25 1 -5
0 -11 -1 -14 -2 -3 -4 -18 -5 -35 -1 -16 -5 -41 -9 -54 -5 -13 -10 -40 -12
-60 -4 -47 -8 -63 -17 -79 -5 -7 -7 -22 -6 -35 2 -12 0 -28 -4 -34 -5 -7 -10
-34 -13 -60 -2 -27 -7 -61 -10 -78 -6 -30 -10 -79 -18 -215 -3 -41 -6 -75 -7
-75 -1 0 -4 -81 -6 -180 -2 -99 -6 -279 -9 -400 -8 -295 -8 -541 -1 -650 11
-177 15 -214 22 -225 4 -7 9 -33 10 -59 1 -25 6 -57 9 -71 4 -14 9 -38 11 -55
1 -16 4 -30 5 -30 2 0 5 -17 14 -77 3 -20 10 -48 16 -62 5 -14 8 -26 5 -26 -2
0 1 -15 6 -32 6 -18 12 -42 14 -53 12 -60 29 -115 36 -115 5 0 6 -7 2 -16 -3
-8 -1 -25 4 -37 13 -27 33 -89 38 -117 2 -12 11 -35 20 -52 8 -17 15 -38 15
-47 0 -9 8 -28 17 -41 10 -14 17 -27 17 -30 -8 -38 124 -260 268 -453 32 -43
58 -80 58 -82 0 -3 8 -14 18 -24 22 -25 29 -34 97 -122 91 -119 232 -257 328
-320 98 -65 237 -143 237 -133 0 3 7 1 15 -6 18 -15 133 -71 150 -74 7 -1 20
-8 29 -15 9 -7 16 -11 16 -7 0 4 11 -1 24 -10 14 -8 26 -15 28 -14 2 0 21 -7
43 -16 22 -10 42 -18 45 -19 5 -1 33 -14 100 -43 19 -9 41 -17 48 -18 7 -1 41
-16 75 -32 52 -25 87 -39 117 -47 3 -1 23 -10 45 -20 22 -9 41 -17 43 -16 1 1
15 -5 30 -13 43 -23 106 -51 117 -52 6 0 37 -13 70 -28 33 -15 78 -35 100 -43
22 -9 46 -21 53 -26 7 -5 15 -7 19 -3 3 3 15 -2 26 -11 10 -10 21 -16 23 -14
4 3 24 -3 79 -25 11 -4 25 -9 30 -9 6 -1 32 -11 58 -23 26 -12 51 -21 55 -20
4 1 17 -3 30 -10 12 -7 22 -10 22 -7 0 3 10 1 21 -6 12 -6 36 -13 53 -16 17
-3 36 -8 41 -13 11 -8 62 -23 85 -24 8 -1 21 -5 29 -10 8 -5 31 -13 50 -17 20
-4 54 -13 76 -19 22 -6 50 -13 62 -15 12 -2 27 -6 33 -10 6 -4 26 -9 43 -11
18 -3 42 -10 54 -16 13 -6 26 -9 29 -5 4 3 15 2 26 -4 11 -6 32 -13 46 -16 37
-7 44 -9 65 -18 10 -4 21 -5 24 -2 3 4 15 1 26 -5 12 -6 32 -12 46 -14 14 -1
41 -7 59 -13 18 -5 36 -10 40 -11 4 0 24 -5 44 -11 20 -5 40 -8 45 -7 4 1 18
-3 31 -10 12 -7 30 -12 40 -10 9 1 32 -4 50 -11 18 -8 35 -11 39 -8 3 4 14 2
24 -3 9 -6 35 -12 56 -15 21 -3 45 -8 53 -11 8 -3 26 -8 40 -11 45 -9 55 -11
55 -14 0 -1 9 -3 20 -4 31 -5 149 -33 173 -43 7 -2 16 -2 19 1 3 4 14 2 23 -3
10 -5 33 -12 51 -14 19 -3 45 -8 59 -12 14 -3 39 -8 55 -10 17 -1 41 -6 55 -9
14 -3 36 -8 50 -11 14 -2 34 -5 45 -7 11 -2 27 -7 35 -10 8 -4 24 -5 35 -3 11
2 30 -1 43 -5 13 -5 49 -11 80 -13 31 -3 57 -5 57 -6 0 -4 47 -12 90 -16 51
-4 106 -11 115 -15 3 -1 30 -3 60 -5 30 -2 80 -6 110 -9 183 -22 714 -22 870
-1 25 4 72 8 105 11 33 3 78 7 100 10 22 3 60 7 85 9 25 2 47 5 50 6 3 1 9 2
14 1 5 -1 16 1 25 5 9 3 39 8 66 9 28 1 50 3 50 4 0 1 18 4 40 6 49 5 100 13
140 20 17 3 50 7 75 9 40 4 85 12 85 16 0 1 21 2 46 4 25 2 52 6 58 11 7 4 27
9 44 10 18 1 52 10 77 18 51 18 82 25 157 37 28 4 57 11 64 16 7 4 28 8 48 9
20 2 48 8 62 13 15 6 29 8 32 5 3 -3 12 -1 19 3 17 11 34 15 83 18 23 1 47 6
54 10 7 5 27 10 44 11 18 2 43 6 57 10 14 4 39 8 55 10 17 1 30 4 30 5 0 2 57
11 75 12 8 0 29 4 45 9 17 5 54 11 84 14 29 3 58 8 63 11 6 4 24 8 41 9 18 2
43 6 57 10 14 3 47 8 73 10 26 2 52 7 58 10 5 4 32 8 60 10 28 2 56 8 62 13 7
4 23 7 36 6 14 -1 39 3 55 8 17 5 49 11 72 12 22 2 49 8 60 13 10 6 28 9 38 7
11 -1 25 0 30 4 12 7 22 9 75 17 18 2 38 8 45 13 6 5 19 8 30 6 10 -1 30 2 45
8 14 6 39 12 55 14 16 2 34 9 41 14 7 5 14 8 17 5 3 -3 24 1 47 9 23 9 43 15
46 16 3 0 6 0 8 1 1 0 15 3 31 5 16 3 41 11 56 19 15 8 30 12 33 9 3 -3 19 2
36 10 17 9 33 16 36 16 16 1 163 50 215 73 25 11 49 19 53 19 4 -1 18 3 30 10
12 7 24 13 27 13 8 0 69 25 130 53 62 27 90 39 105 42 6 1 16 7 24 13 7 6 18
12 25 13 7 1 34 12 61 24 28 12 66 29 85 38 19 8 43 22 53 30 9 8 17 12 17 8
0 -4 26 6 58 22 31 16 206 102 387 192 182 89 338 170 349 179 10 9 20 15 22
14 7 -4 38 9 54 23 8 7 17 13 20 13 19 1 70 25 70 32 0 5 3 8 8 7 13 -3 62 25
62 35 0 6 3 8 6 4 4 -3 69 26 145 64 76 39 141 70 145 69 4 -1 10 3 13 8 3 5
56 33 116 62 61 28 118 59 128 67 9 9 17 13 17 10 0 -4 80 34 179 83 98 50
183 90 188 90 6 0 16 7 23 15 6 8 15 14 18 13 7 -2 58 21 247 112 66 31 141
66 167 76 25 10 44 22 41 27 -3 5 1 7 8 6 14 -2 28 3 104 36 22 10 45 17 52
16 6 -1 14 3 18 9 3 5 14 10 24 10 10 0 24 7 31 15 7 8 16 12 21 9 5 -3 19 1
31 8 13 7 25 13 28 13 38 9 69 21 88 33 12 8 22 11 22 8 0 -4 14 0 30 9 17 9
30 13 30 11 0 -3 25 6 55 19 30 14 55 23 55 21 0 -2 24 5 53 15 28 11 60 22
71 24 10 2 24 9 30 15 7 5 15 7 18 4 4 -3 20 2 37 10 17 9 32 16 33 15 2 -1
41 10 88 24 47 14 88 27 92 27 4 0 23 7 43 16 19 8 37 14 40 14 16 -1 96 24
100 31 3 4 12 6 19 3 8 -3 27 1 43 9 15 8 33 12 40 10 6 -2 14 1 18 6 3 6 17
11 31 11 14 0 38 7 54 15 17 9 32 15 35 14 14 -2 92 15 110 24 11 6 24 10 29
9 4 -2 25 3 45 10 20 7 39 11 43 10 4 -1 20 3 35 9 15 6 43 13 62 15 18 3 41
8 50 13 9 5 21 6 28 4 6 -2 25 3 41 11 16 8 32 13 35 10 3 -3 23 0 44 7 21 7
42 12 47 11 5 -2 16 0 25 4 20 9 36 12 80 19 18 2 39 9 46 15 6 5 14 8 17 5 2
-3 20 0 39 5 19 6 50 13 69 16 19 3 39 9 44 14 5 5 14 6 20 4 7 -3 26 1 42 7
16 7 32 11 37 11 4 -1 23 4 41 12 19 8 36 12 39 10 2 -2 20 3 40 11 21 8 37
13 37 11 0 -3 15 1 33 9 17 7 37 14 42 14 26 3 91 24 101 32 6 5 13 7 16 4 3
-3 21 2 41 10 21 8 37 13 37 10 0 -3 10 0 23 7 12 7 27 12 32 13 14 1 120 33
153 47 15 6 34 12 42 14 52 11 76 18 80 25 3 4 17 9 30 11 14 2 32 8 40 13 8
5 20 10 25 10 23 2 72 17 96 30 14 8 28 12 31 10 3 -3 18 1 33 9 16 8 32 13
36 11 4 -3 12 2 19 10 6 7 18 11 25 9 7 -3 25 2 39 11 14 10 26 14 26 11 0 -4
14 0 30 9 17 9 30 13 30 10 0 -3 10 0 23 7 12 7 24 13 27 13 35 9 69 20 85 28
11 6 25 12 31 13 6 1 27 9 45 17 19 8 52 22 74 30 22 9 58 23 80 33 22 10 42
18 45 19 3 1 17 5 33 9 15 5 27 12 27 17 0 5 7 9 15 9 8 0 30 9 50 20 20 11
42 20 49 20 8 0 17 7 20 16 3 8 9 13 13 11 5 -2 22 4 38 14 17 10 40 23 53 29
13 5 66 37 119 70 52 33 99 60 103 60 5 0 10 4 12 8 2 5 46 42 98 82 239 185
450 380 603 559 40 47 83 97 97 112 14 15 30 34 35 42 22 34 184 253 204 276
12 13 21 30 21 37 0 7 4 14 9 16 11 4 243 313 265 353 9 17 25 44 35 60 57 93
80 135 74 135 -3 0 1 8 9 18 14 16 26 41 28 60 1 4 9 15 17 25 9 9 12 17 8 17
-4 0 -1 8 7 18 12 14 24 36 33 62 10 30 26 59 34 65 6 3 11 13 11 21 0 8 9 33
19 57 28 60 52 120 56 137 6 26 47 144 57 163 5 11 7 21 4 24 -3 3 -1 13 4 23
5 9 12 32 16 51 8 43 9 51 18 70 4 9 6 20 5 25 -1 5 0 11 1 14 3 9 11 44 15
67 1 11 6 32 11 45 4 12 8 34 9 48 1 14 5 31 9 38 4 7 5 16 1 21 -3 5 -1 12 4
15 10 6 11 23 15 241 2 83 1 154 -2 159 -3 6 -7 69 -8 140 -1 72 -5 151 -8
176 -3 25 -8 74 -10 110 -3 36 -8 79 -12 95 -4 17 -8 44 -9 60 -1 17 -3 35 -5
40 -1 6 -2 14 -1 19 1 5 -1 16 -5 25 -3 9 -8 39 -9 68 -2 28 -6 57 -11 64 -4
7 -8 31 -10 53 -1 23 -5 52 -9 66 -3 14 -8 44 -10 67 -2 23 -8 50 -13 60 -5
10 -8 32 -7 48 2 17 0 35 -3 40 -4 6 -7 15 -8 20 -1 6 -4 24 -7 41 -3 17 -10
40 -16 51 -5 11 -8 23 -4 26 3 4 1 19 -5 34 -6 15 -13 40 -16 55 -2 14 -9 35
-15 46 -6 11 -8 22 -5 25 3 3 0 16 -7 29 -7 12 -14 30 -14 38 -2 24 -15 71
-37 130 -11 30 -21 63 -23 72 -2 9 -9 26 -15 37 -6 12 -8 21 -5 21 3 0 0 10
-7 23 -7 12 -11 26 -10 30 1 4 -3 18 -10 30 -7 12 -13 27 -13 32 -1 6 -5 19
-9 30 -4 11 -11 29 -16 40 -4 11 -13 34 -20 50 -8 17 -14 35 -14 40 -1 6 -6
19 -13 30 -6 11 -12 23 -12 27 -3 15 -13 43 -27 73 -7 17 -27 62 -44 100 -43
96 -152 293 -217 393 -96 146 -212 294 -363 467 -25 28 -72 84 -105 124 -33
41 -75 89 -92 109 -18 19 -33 39 -33 45 0 5 -6 15 -14 21 -15 12 -163 209
-256 341 -192 273 -385 518 -625 796 -137 158 -175 206 -175 220 0 7 -3 9 -7
6 -3 -4 -17 9 -30 28 -13 19 -35 47 -49 62 -15 15 -34 39 -42 53 -9 14 -46 66
-82 115 -37 50 -100 140 -142 200 -158 232 -192 280 -200 283 -4 2 -8 8 -8 14
0 12 -338 489 -358 506 -9 6 -12 12 -8 12 4 0 -6 19 -23 42 -17 23 -31 48 -31
55 0 7 -4 13 -8 13 -5 0 -21 21 -36 48 -15 26 -43 74 -63 107 -54 91 -73 125
-106 185 -16 30 -37 63 -45 73 -8 9 -12 17 -9 17 4 0 -3 17 -15 38 -34 61 -62
112 -113 207 -26 50 -56 101 -66 114 -11 13 -19 28 -19 33 0 6 -8 22 -19 36
-10 15 -31 50 -46 77 -36 67 -128 209 -137 213 -5 2 -8 8 -8 14 0 16 -141 228
-152 228 -5 0 -6 5 -3 11 4 6 0 16 -8 22 -16 13 -95 121 -177 242 -30 44 -57
82 -61 85 -3 3 -47 66 -97 140 -177 263 -283 415 -292 418 -6 2 -10 8 -10 14
0 12 -138 197 -257 346 -46 57 -83 104 -83 106 0 14 -288 310 -360 370 -19 15
-75 57 -125 92 -49 35 -110 78 -135 96 -73 55 -184 128 -193 128 -5 0 -24 12
-43 26 -19 15 -34 23 -34 19 0 -5 -8 -1 -17 7 -10 8 -33 21 -50 29 -18 8 -33
17 -33 21 0 5 -9 8 -19 8 -11 0 -23 5 -26 10 -3 6 -15 10 -26 10 -10 0 -19 4
-19 8 0 4 -17 14 -37 21 -21 7 -57 21 -80 32 -24 10 -46 18 -50 17 -5 -1 -18
3 -30 10 -13 7 -23 10 -23 6 0 -3 -11 1 -25 10 -14 9 -31 16 -38 14 -6 -1 -22
4 -35 11 -13 7 -30 10 -37 7 -8 -3 -15 0 -17 6 -2 6 -15 12 -28 12 -14 1 -35
7 -47 14 -12 7 -31 12 -42 12 -11 0 -22 4 -25 9 -5 7 -54 23 -81 25 -5 1 -12
3 -15 6 -3 3 -45 18 -95 34 -49 15 -101 32 -115 36 -28 10 -90 24 -105 25 -5
0 -16 4 -22 8 -7 4 -28 9 -46 11 -19 2 -39 6 -45 10 -7 4 -26 9 -44 11 -39 5
-57 9 -80 19 -10 5 -23 6 -30 3 -7 -2 -21 0 -32 5 -10 6 -40 11 -66 13 -26 1
-63 8 -81 14 -19 6 -43 9 -54 7 -11 -2 -25 1 -31 6 -7 5 -31 10 -55 12 -24 3
-55 7 -69 11 -14 4 -37 8 -51 10 -15 2 -37 6 -50 11 -13 4 -37 8 -54 10 -16 2
-41 6 -55 9 -26 6 -74 13 -145 20 -22 2 -40 5 -40 6 0 1 -22 3 -50 4 -27 2
-70 6 -95 10 -25 4 -79 8 -120 10 -41 2 -97 6 -125 10 -51 6 -371 15 -377 10z"/>
</g>
</svg>
